<?xml version="1.0" standalone="no"?>
<!DOCTYPE svg PUBLIC "-//W3C//DTD SVG 20010904//EN"
 "http://www.w3.org/TR/2001/REC-SVG-20010904/DTD/svg10.dtd">
<svg version="1.0" xmlns="http://www.w3.org/2000/svg"
 width="218.000000pt" height="251.000000pt" viewBox="0 0 218.000000 251.000000"
 preserveAspectRatio="xMidYMid meet">
<metadata>
Created by potrace 1.16, written by Peter Selinger 2001-2019
</metadata>
<g transform="translate(0.000000,251.000000) scale(0.100000,-0.100000)"
fill="#000000" stroke="none">
<path d="M460 2028 c-78 -73 -143 -142 -147 -156 -3 -13 -3 -79 0 -145 5 -116
26 -217 72 -352 83 -246 269 -584 429 -780 101 -124 331 -353 343 -341 2 2
-20 43 -50 92 -235 388 -432 888 -493 1254 -13 77 -20 370 -9 370 2 0 28 -18
58 -40 l54 -41 7 -120 c8 -146 25 -199 65 -199 63 0 224 70 294 127 23 19 40
23 93 23 59 0 69 -3 127 -43 74 -51 182 -96 248 -104 l47 -6 18 59 c12 39 18
95 19 163 l1 105 57 43 c63 49 63 50 71 -41 14 -159 -37 -443 -129 -716 -91
-271 -252 -620 -380 -824 -37 -59 -65 -109 -62 -112 9 -10 259 240 337 337
224 278 406 628 480 922 37 145 49 246 41 325 l-7 64 -114 109 c-123 117 -183
164 -198 155 -5 -3 -12 -18 -15 -34 -3 -16 -27 -52 -53 -81 l-48 -53 -18 22
c-16 19 -24 22 -61 16 -49 -8 -211 -83 -261 -121 -26 -19 -51 -28 -93 -32 -54
-5 -61 -3 -103 30 -53 41 -111 71 -197 103 -83 31 -109 31 -126 -2 l-13 -26
-58 62 c-50 54 -56 66 -51 91 13 59 -30 34 -175 -103z"/>
</g>
</svg>
