<svg version="1.1" id="Layer_1" xmlns="http://www.w3.org/2000/svg" xmlns:xlink="http://www.w3.org/1999/xlink" x="0px" y="0px"
	 width="100%" viewBox="0 0 382 813" enable-background="new 0 0 382 813" xml:space="preserve">
<path opacity="0.000000" stroke="none" 
	d="
M1.000000,243.000000 
	C1.000000,162.000015 1.000000,81.500031 1.000000,1.000032 
	C128.333298,1.000022 255.666580,1.000022 382.999908,1.000011 
	C382.999939,271.999908 382.999939,542.999817 382.999969,813.999817 
	C255.666779,813.999878 128.333557,813.999878 1.000163,813.999939 
	C1.000000,623.833313 1.000000,433.666656 1.000000,243.000000 
M245.638855,648.762939 
	C245.720169,649.180481 245.801483,649.598083 245.493240,650.291199 
	C245.795609,650.919434 246.097977,651.547668 246.643829,652.764587 
	C246.724609,653.181458 246.805405,653.598267 246.497391,654.291382 
	C246.798370,654.919556 247.099365,655.547729 247.643829,656.764587 
	C247.724609,657.181458 247.805405,657.598267 247.497375,658.291382 
	C247.798355,658.919556 248.099350,659.547729 248.643829,660.764587 
	C248.724625,661.181458 248.805405,661.598267 248.497482,662.291138 
	C248.798676,662.919312 249.099854,663.547485 249.643921,664.764648 
	C249.725021,665.181458 249.806107,665.598267 249.496216,666.310059 
	C249.836868,666.926697 250.177521,667.543396 250.764709,668.747070 
	C250.813553,669.168762 250.862396,669.590393 250.514755,670.301208 
	C250.847336,670.921204 251.179932,671.541260 251.779404,672.884216 
	C252.453171,675.597900 253.126938,678.311646 253.387390,681.283081 
	C253.718674,681.915466 254.049957,682.547913 254.640335,683.763428 
	C254.694031,684.184021 254.747711,684.604675 254.387756,685.282593 
	C254.718918,685.915161 255.050064,686.547729 255.641586,687.763062 
	C255.725342,688.180115 255.809097,688.597229 255.504288,689.289917 
	C255.802673,689.918579 256.101044,690.547180 256.644165,691.764404 
	C256.727356,692.181030 256.810516,692.597656 256.504272,693.310852 
	C256.843079,693.927124 257.181885,694.543457 257.768188,695.746399 
	C257.817719,696.168030 257.867249,696.589600 257.522125,697.303650 
	C257.854980,697.922302 258.187805,698.540955 258.785858,699.883301 
	C259.457825,702.597290 260.129791,705.311218 260.388031,708.282104 
	C260.719177,708.914795 261.050323,709.547546 261.641815,710.763123 
	C261.726959,711.179993 261.812103,711.596924 261.510132,712.290588 
	C261.806335,712.919067 262.102570,713.547546 262.644531,714.764343 
	C262.729370,715.180786 262.814178,715.597168 262.510590,716.311096 
	C262.847626,716.927307 263.184662,717.543579 263.770325,718.746033 
	C263.819672,719.167725 263.869019,719.589355 263.523773,720.303528 
	C263.856415,720.922302 264.189056,721.541016 264.787537,722.883240 
	C265.459595,725.597229 266.131622,728.311218 266.389343,731.280640 
	C266.720123,731.913757 267.050903,732.546936 267.642151,733.763123 
	C267.728821,734.179810 267.815491,734.596558 267.516266,735.290894 
	C267.809875,735.919373 268.103485,736.547852 268.644348,737.764282 
	C268.730469,738.180542 268.816559,738.596863 268.514893,739.311768 
	C268.851624,739.927612 269.188385,740.543457 269.789703,741.883179 
	C270.462097,744.597046 271.134491,747.310852 271.392792,750.281616 
	C271.724976,750.914124 272.057159,751.546570 272.647064,752.763062 
	C272.734375,753.179504 272.821686,753.596008 272.523407,754.291443 
	C272.816376,754.919556 273.109314,755.547607 273.649902,756.763550 
	C273.736389,757.179810 273.822906,757.596130 273.522858,758.312134 
	C273.856323,758.928101 274.189819,759.544067 274.788116,760.883972 
	C275.461334,763.597534 276.134521,766.311096 276.393402,769.280701 
	C276.724823,769.913574 277.056244,770.546387 277.645996,771.763245 
	C277.735382,772.179382 277.824768,772.595520 277.531525,773.294128 
	C277.820160,773.921570 278.108795,774.549072 278.647339,775.763733 
	C278.736908,776.179626 278.826477,776.595581 278.530823,777.315552 
	C278.864777,777.929749 279.198700,778.544006 279.781525,779.744568 
	C279.829254,780.166443 279.877014,780.588318 279.536774,781.312561 
	C279.869476,781.927673 280.202179,782.542725 280.789703,783.835571 
	C281.129425,785.231873 281.469116,786.628174 281.394409,788.278931 
	C281.724396,788.912415 282.054413,789.545959 282.669495,790.867188 
	C284.719696,792.800293 286.507355,795.937927 288.866760,796.452148 
	C297.757996,798.390198 306.799744,800.071716 315.858765,800.610474 
	C319.983063,800.855713 324.868500,799.071777 328.365234,796.681641 
	C334.217529,792.681274 339.322327,787.553833 344.575134,782.719727 
	C349.354919,778.320923 350.648560,772.954041 349.574097,766.414673 
	C342.992645,726.359192 337.056519,686.194885 330.186829,646.190247 
	C317.734772,573.677612 304.545288,501.291565 292.130402,428.772736 
	C285.781372,391.686157 280.334045,354.443085 274.690155,317.238739 
	C271.471710,296.023010 269.056854,274.680450 265.567291,253.512497 
	C262.998413,237.929703 258.888794,222.603348 256.222748,207.033096 
	C254.824646,198.867935 255.054779,190.423996 254.549606,182.105942 
	C255.198807,181.955505 255.848022,181.805069 256.497223,181.654617 
	C257.261597,183.230545 258.141541,184.761612 258.773132,186.389053 
	C269.494904,214.016739 272.677032,243.127502 275.845093,272.274780 
	C278.543091,297.097321 281.633331,321.878265 284.758636,346.651306 
	C285.000854,348.571136 286.605042,351.568878 288.060486,351.893311 
	C303.274567,355.285217 318.400116,355.858612 332.992065,348.884369 
	C335.743011,347.569519 336.936340,345.942444 336.682373,342.700775 
	C334.874878,319.631836 333.491760,296.527893 331.520538,273.473846 
	C327.018921,220.825516 317.318512,168.942215 308.159332,116.978363 
	C304.177521,94.387962 300.846649,71.682076 296.767700,49.110401 
	C296.199036,45.963547 293.673553,42.148743 290.944122,40.603676 
	C282.436981,35.788048 273.615997,31.350637 264.511230,27.808935 
	C251.367691,22.696186 237.906799,18.378624 224.474228,14.054504 
	C222.713150,13.487600 219.987976,14.386985 218.302094,15.502825 
	C216.202621,16.892414 214.718796,19.212185 212.969116,21.130280 
	C213.547089,23.540726 213.384781,25.796375 212.601273,27.810358 
	C210.867584,32.266808 208.821579,36.601765 206.283417,41.324165 
	C189.194885,79.555717 174.907822,118.868958 161.094971,158.652557 
	C159.362564,154.062973 158.169586,149.593750 158.023880,145.090622 
	C157.033295,114.480232 156.249008,83.863075 155.435760,53.247108 
	C155.290619,47.782623 155.320663,42.313488 155.675598,36.009258 
	C156.136124,30.366554 156.596649,24.723848 157.813034,19.113739 
	C161.039459,20.312248 164.321899,21.380280 167.480759,22.736193 
	C174.244919,25.639650 179.524536,23.871145 182.805511,17.466599 
	C183.614151,15.888128 184.529938,14.364545 185.722244,12.233421 
	C182.835342,14.900289 180.325317,17.000080 178.080139,19.352613 
	C175.680969,21.866484 173.216568,22.351536 170.068542,20.815380 
	C165.787903,18.726538 161.382858,16.892601 156.324417,14.528598 
	C153.741898,14.499433 151.076874,14.036671 148.589920,14.509808 
	C128.961014,18.244148 110.023445,24.323414 91.679749,32.173939 
	C89.619385,33.055706 87.724037,35.603676 86.897499,37.808365 
	C85.398766,41.806026 85.259018,46.327206 83.667999,50.273453 
	C79.762360,59.960701 75.137550,69.356918 71.189941,79.028534 
	C60.938961,104.143402 52.487297,129.849747 46.345192,156.298477 
	C42.257092,173.902405 38.647152,191.786041 42.735378,209.632462 
	C48.706631,235.698898 56.101734,261.439514 62.947098,287.303894 
	C63.186123,288.207031 64.037094,288.948181 64.602852,289.764832 
	C65.048447,289.824249 65.494049,289.883698 65.939644,289.943115 
	C66.554199,276.514343 71.294235,265.424683 83.387589,257.099060 
	C85.690643,264.802612 87.778633,271.720856 89.797859,278.659119 
	C89.969673,279.249512 89.711586,279.977966 89.604950,280.634460 
	C88.457222,287.700104 87.170921,294.746124 86.177078,301.833191 
	C84.885201,311.045563 82.846535,320.295074 82.892380,329.519867 
	C82.960899,343.307281 84.942810,357.073151 85.452850,370.872528 
	C87.664131,430.699860 93.560020,490.163879 104.613350,548.982666 
	C112.872742,592.933960 122.441994,636.649475 132.038055,680.335999 
	C139.450806,714.082947 147.752991,747.635620 155.782974,781.245239 
	C158.155502,791.175537 169.782471,801.260864 178.276611,799.835632 
	C192.970810,797.370117 207.492142,793.878845 222.095444,790.863525 
	C225.182709,790.226013 225.829086,788.336853 225.727966,785.442444 
	C225.396683,775.961487 225.290131,766.472717 225.546417,756.429932 
	C225.321960,754.615479 225.097504,752.801025 224.698105,750.136108 
	C224.496216,745.419922 224.294327,740.703674 224.529816,735.513611 
	C224.310242,734.337830 224.090683,733.162109 223.695984,731.196533 
	C223.536209,728.454773 223.376450,725.713074 223.706161,722.488708 
	C223.427048,720.987854 223.147934,719.486938 222.696899,717.246216 
	C222.578949,715.481628 222.460999,713.717041 222.788986,711.434326 
	C222.480911,709.951416 222.172852,708.468506 221.683197,706.252991 
	C221.526031,704.492676 221.368866,702.732422 221.692703,700.538696 
	C221.418549,699.354553 221.144394,698.170349 220.688187,696.253479 
	C220.530609,694.492920 220.373016,692.732361 220.685364,690.606323 
	C220.413315,689.732910 220.141281,688.859558 219.691376,687.329773 
	C219.566528,686.205505 219.441681,685.081299 219.737747,683.478821 
	C219.447128,682.314453 219.156509,681.150085 218.690964,679.328796 
	C218.564789,678.205078 218.438629,677.081360 218.730148,675.541565 
	C218.424164,674.297913 218.118179,673.054260 217.563995,671.069641 
	C217.480072,670.032410 217.396164,668.995117 217.726974,667.622375 
	C217.421097,666.685364 217.115219,665.748291 216.568008,664.123657 
	C216.481812,663.401855 216.395630,662.680115 216.729523,661.552734 
	C216.441528,660.697021 216.153534,659.841309 215.689896,658.329529 
	C215.516464,657.212219 215.343018,656.094971 215.561768,654.619202 
	C215.310760,653.683167 215.059753,652.747070 214.567902,651.123352 
	C214.480621,650.401917 214.393341,649.680481 214.720963,648.624084 
	C214.416779,647.686462 214.112595,646.748779 213.571640,645.122437 
	C213.483871,644.401123 213.396103,643.679810 213.722672,642.622742 
	C213.417542,641.685486 213.112411,640.748291 212.568954,639.123352 
	C212.435944,638.408203 212.302933,637.693115 212.548248,636.727112 
	C212.301468,636.089417 212.054672,635.451660 211.569305,634.125549 
	C211.435242,633.409729 211.301193,632.693970 211.546295,631.728027 
	C211.300156,631.090027 211.054016,630.452026 210.570786,629.124878 
	C210.481308,628.403259 210.391846,627.681702 210.703705,626.727600 
	C210.404709,626.089539 210.105713,625.451416 209.570496,624.124023 
	C209.480591,623.402588 209.390671,622.681152 209.722214,621.550781 
	C209.427979,620.694702 209.133759,619.838684 208.639771,618.505615 
	C208.581909,618.166870 208.524063,617.828064 208.787506,616.951050 
	C208.459106,616.238586 208.130707,615.526184 207.565033,614.125244 
	C207.431992,613.409668 207.298950,612.694153 207.547333,611.647644 
	C207.311371,611.092468 207.075394,610.537292 206.642761,609.504272 
	C206.583923,609.165955 206.525070,608.827637 206.787643,607.951782 
	C206.460464,607.239136 206.133301,606.526428 205.571335,605.124390 
	C205.436081,604.409119 205.300827,603.693848 205.548477,602.648682 
	C205.312134,602.093140 205.075775,601.537659 204.642776,600.504272 
	C204.583923,600.165955 204.525070,599.827637 204.787521,598.951355 
	C204.459641,598.238770 204.131760,597.526184 203.568695,596.124451 
	C203.433533,595.409241 203.298386,594.694092 203.542786,593.729187 
	C203.296204,593.090637 203.049622,592.452148 202.567520,591.124634 
	C202.432800,590.409363 202.298080,589.694153 202.542480,588.729370 
	C202.295654,588.090881 202.048828,587.452332 201.569138,586.124084 
	C201.477554,585.403198 201.385971,584.682312 201.695114,583.729248 
	C201.397247,583.090515 201.099396,582.451843 200.568954,581.123413 
	C200.477127,580.402710 200.385300,579.682068 200.694702,578.729736 
	C200.396637,578.090820 200.098572,577.451965 199.562683,576.069580 
	C199.473267,575.033203 199.383850,573.996887 199.713898,572.545288 
	C199.409698,571.300110 199.105515,570.054871 198.560226,568.031372 
	C198.442154,566.678589 198.324081,565.325867 198.669266,563.602844 
	C198.401215,562.730408 198.133163,561.857910 197.693375,560.251404 
	C197.529877,558.492065 197.366379,556.732666 197.683350,554.484497 
	C197.410080,552.984802 197.136810,551.485046 196.713364,549.192139 
	C196.542923,546.452576 196.372482,543.713013 196.681900,540.483948 
	C196.408493,538.984375 196.135101,537.484741 195.713181,535.191772 
	C195.541855,532.452515 195.370544,529.713196 195.677429,526.483215 
	C195.405258,524.983826 195.133087,523.484436 194.712692,521.183228 
	C194.541107,518.113464 194.369507,515.043701 194.676926,511.483856 
	C194.404053,509.984131 194.131180,508.484436 193.714417,506.171112 
	C193.541306,503.105499 193.368195,500.039886 193.677032,496.444519 
	C193.403778,494.624512 193.130508,492.804535 192.712189,490.182434 
	C192.539566,487.113129 192.366943,484.043823 192.669525,480.486511 
	C192.433228,478.989685 192.196945,477.492889 191.784607,475.160797 
	C191.588379,471.098633 191.392151,467.036469 191.669296,462.484619 
	C191.432114,460.988312 191.194931,459.492035 190.781601,457.160553 
	C190.585342,453.098572 190.389084,449.036560 190.670425,444.445618 
	C190.432693,442.628967 190.194977,440.812347 189.779999,438.144348 
	C189.583374,433.421356 189.386749,428.698334 189.641663,423.627930 
	C190.212494,422.819641 190.783310,422.011353 191.629868,421.773682 
	C191.681122,422.191467 191.732376,422.609253 191.374344,423.290253 
	C191.697723,423.922455 192.021088,424.554657 192.639771,425.851715 
	C192.720718,426.572968 192.801666,427.294220 192.473373,428.287994 
	C192.805954,428.914642 193.138535,429.541321 193.723618,430.753479 
	C193.776611,431.174133 193.829605,431.594818 193.475403,432.275055 
	C193.781174,432.908936 194.086960,433.542847 194.628647,434.767883 
	C194.679062,435.187775 194.729492,435.607697 194.369644,436.290649 
	C194.696030,436.922607 195.022400,437.554535 195.652603,438.908142 
	C196.063858,440.943756 196.475113,442.979370 196.480545,445.276825 
	C196.786560,445.909882 197.092575,446.542969 197.634933,447.766541 
	C197.704391,448.184418 197.773849,448.602264 197.449280,449.292786 
	C197.765717,449.920563 198.082169,450.548340 198.634293,451.767303 
	C198.684479,452.187195 198.734665,452.607056 198.374954,453.289307 
	C198.699692,453.921600 199.024429,454.553925 199.642807,455.851562 
	C199.724243,456.572662 199.805679,457.293793 199.478729,458.288422 
	C199.810654,458.914764 200.142578,459.541107 200.727859,460.752563 
	C200.780945,461.173340 200.834045,461.594116 200.480804,462.275208 
	C200.785355,462.908966 201.089920,463.542755 201.631454,464.767334 
	C201.681473,465.187347 201.731491,465.607391 201.370758,466.289612 
	C201.698257,466.921631 202.025757,467.553619 202.626785,468.763214 
	C202.678467,469.184601 202.730148,469.606018 202.370926,470.289459 
	C202.698364,470.921509 203.025803,471.553589 203.644669,472.851776 
	C203.726746,473.572662 203.808823,474.293579 203.483994,475.290466 
	C203.816284,475.915802 204.148575,476.541107 204.733002,477.751892 
	C204.785965,478.172729 204.838928,478.593536 204.486618,479.275909 
	C204.789856,479.909393 205.093094,480.542847 205.634308,481.766907 
	C205.685165,482.186859 205.736008,482.606842 205.375748,483.289612 
	C205.703552,483.921356 206.031357,484.553131 206.659012,485.907898 
	C207.069504,487.943451 207.479996,489.978973 207.485718,492.276917 
	C207.788971,492.910095 208.092224,493.543304 208.633957,494.766357 
	C208.705704,495.184052 208.777451,495.601746 208.455887,496.292297 
	C208.769104,496.920410 209.082321,497.548553 209.633240,498.767212 
	C209.684036,499.187134 209.734818,499.607056 209.374847,500.289032 
	C209.701920,500.921051 210.028976,501.553070 210.645584,502.851868 
	C210.728241,503.572632 210.810883,504.293427 210.487320,505.292694 
	C210.821716,505.916718 211.156113,506.540710 211.739136,507.751221 
	C211.790604,508.172180 211.842072,508.593170 211.489532,509.277740 
	C211.792923,509.910461 212.096298,510.543152 212.637375,511.766510 
	C212.688171,512.186523 212.738983,512.606506 212.378311,513.288696 
	C212.706192,513.920593 213.034088,514.552551 213.660690,515.907898 
	C214.071579,517.943359 214.482452,519.978760 214.489853,522.277527 
	C214.791275,522.910583 215.092697,523.543579 215.634171,524.766113 
	C215.707947,525.183655 215.781723,525.601196 215.462204,526.292053 
	C215.774078,526.920166 216.085953,527.548218 216.636185,528.766724 
	C216.686676,529.186768 216.737183,529.606873 216.376144,530.287903 
	C216.704239,530.920105 217.032349,531.552307 217.648575,532.851685 
	C217.731171,533.572388 217.813766,534.293152 217.491318,535.294678 
	C217.826538,535.917664 218.161743,536.540710 218.744064,537.750549 
	C218.795105,538.171570 218.846161,538.592651 218.495285,539.279419 
	C218.796844,539.911621 219.098389,540.543823 219.638901,541.766235 
	C219.689636,542.186279 219.740372,542.606262 219.379349,543.287720 
	C219.707886,543.919800 220.036407,544.551819 220.661652,545.908203 
	C221.073196,547.943420 221.484741,549.978638 221.493759,552.277832 
	C221.794525,552.910767 222.095276,553.543640 222.637146,554.765686 
	C222.712570,555.183044 222.787994,555.600464 222.472015,556.292236 
	C222.780640,556.920288 223.089264,557.548401 223.637650,558.766235 
	C223.688644,559.186340 223.739624,559.606384 223.378494,560.287292 
	C223.707535,560.919373 224.036575,561.551514 224.650818,562.851746 
	C224.733917,563.572266 224.817017,564.292847 224.496887,565.296021 
	C224.831299,565.918396 225.165710,566.540833 225.747330,567.749878 
	C225.798325,568.171021 225.849335,568.592163 225.499573,569.279236 
	C225.798996,569.911560 226.098419,570.543945 226.638809,571.765564 
	C226.715225,572.182800 226.791641,572.600098 226.477829,573.293396 
	C226.785736,573.920898 227.093658,574.548462 227.641724,575.765747 
	C227.692230,576.185913 227.742737,576.606018 227.380432,577.286987 
	C227.710587,577.918945 228.040726,578.550903 228.664902,579.908203 
	C229.077393,581.943176 229.489883,583.978149 229.500000,586.296631 
	C229.833939,586.918762 230.167862,587.540894 230.749985,588.749390 
	C230.800903,589.170654 230.851822,589.591858 230.500534,590.296631 
	C230.834839,590.918640 231.169159,591.540710 231.751617,592.749084 
	C231.801971,593.170410 231.852325,593.591736 231.502762,594.279480 
	C231.801483,594.911682 232.100204,595.543823 232.640472,596.765137 
	C232.717957,597.182312 232.795441,597.599548 232.481445,598.290771 
	C232.787888,598.919128 233.094330,599.547485 233.641876,600.765076 
	C233.718903,601.182312 233.795914,601.599487 233.481430,602.290771 
	C233.787872,602.919128 234.094315,603.547485 234.640884,604.765625 
	C234.692307,605.185730 234.743729,605.605835 234.383102,606.286804 
	C234.713699,606.918579 235.044281,607.550293 235.639420,608.763000 
	C235.691849,609.183899 235.744293,609.604736 235.384613,610.285278 
	C235.712692,610.917786 236.040771,611.550293 236.634216,612.763550 
	C236.687378,613.184448 236.740540,613.605286 236.380630,614.284973 
	C236.710297,614.917542 237.039963,615.550110 237.634354,616.763733 
	C237.687469,617.184570 237.740585,617.605347 237.380524,618.285217 
	C237.710800,618.917603 238.041092,619.550049 238.635834,620.763489 
	C238.689285,621.184265 238.742737,621.605042 238.383698,622.285583 
	C238.713669,622.917786 239.043640,623.549988 239.637451,624.763428 
	C239.690491,625.184204 239.743515,625.605042 239.383881,626.285522 
	C239.713791,626.917725 240.043701,627.549988 240.637436,628.763428 
	C240.690720,629.184204 240.744003,629.604980 240.384186,630.285339 
	C240.714600,630.917603 241.044998,631.549805 241.638824,632.763367 
	C241.691650,633.184143 241.744476,633.604980 241.384399,634.284912 
	C241.715164,634.917114 242.045929,635.549377 242.640167,636.763000 
	C242.693497,637.183777 242.746826,637.604614 242.387329,638.284790 
	C242.717651,638.916931 243.047974,639.549133 243.640396,640.763184 
	C243.693649,641.183899 243.746887,641.604614 243.387390,642.284180 
	C243.716568,642.916687 244.045731,643.549133 244.637726,644.763367 
	C244.691040,645.184143 244.744339,645.604980 244.384613,646.284363 
	C244.714722,646.916809 245.044830,647.549255 245.638855,648.762939 
M171.085144,102.570694 
	C171.305649,101.781342 171.940414,100.787918 171.670547,100.240105 
	C170.788666,98.449860 169.577179,96.821976 168.492447,95.131660 
	C167.248734,96.003853 165.115341,96.735786 164.951004,97.778145 
	C164.632645,99.797577 165.422409,101.991714 165.752960,104.113449 
	C167.418640,103.829735 169.084305,103.546013 171.085144,102.570694 
M195.187805,24.004810 
	C193.972717,23.425718 192.757629,22.846626 191.098404,22.055868 
	C193.842102,28.694536 204.901108,28.173977 211.670364,21.200384 
	C206.047470,22.245068 201.022919,23.178587 195.187805,24.004810 
M160.046539,132.475739 
	C159.917892,133.281982 159.475769,134.205017 159.723831,134.870926 
	C160.294525,136.402908 161.200974,137.809799 161.971176,139.267441 
	C163.168777,138.404709 165.158463,137.711502 165.387482,136.641449 
	C165.779510,134.809830 165.069550,132.742371 164.822342,130.773941 
	C163.343307,131.116058 161.864288,131.458176 160.046539,132.475739 
M172.784119,63.120228 
	C169.367416,65.453827 169.084396,68.409332 171.682312,71.338600 
	C172.190720,71.911880 175.093048,71.484474 175.687973,70.655289 
	C177.752258,67.778175 177.601074,64.901443 174.050217,62.997299 
	C173.921036,62.928024 173.727280,62.979198 172.784119,63.120228 
M183.050262,37.566898 
	C182.776581,35.515167 182.502899,33.463436 182.229218,31.411701 
	C180.912415,31.688608 178.741577,31.611698 178.450760,32.313656 
	C177.776962,33.940090 177.693832,36.017353 178.095810,37.743046 
	C178.200516,38.192501 180.967636,38.021763 183.050262,37.566898 
z"/>
<path fill="#040104" opacity="1.000000" stroke="none" 
	d="
M273.909393,758.012390 
	C273.822906,757.596130 273.736389,757.179810 273.648438,756.179565 
	C273.401001,755.067810 273.154999,754.540161 272.908997,754.012451 
	C272.821686,753.596008 272.734375,753.179504 272.624207,752.183899 
	C272.336517,751.078064 272.071716,750.551392 271.806915,750.024719 
	C271.134491,747.310852 270.462097,744.597046 269.730469,741.220642 
	C269.415070,740.043091 269.158875,739.528137 268.902679,739.013123 
	C268.816559,738.596863 268.730469,738.180542 268.644653,737.181030 
	C268.397400,736.069641 268.149811,735.541443 267.902161,735.013245 
	C267.815491,734.596558 267.728821,734.179810 267.618134,733.184570 
	C267.330627,732.079102 267.067169,731.552185 266.803680,731.025208 
	C266.131622,728.311218 265.459595,725.597229 264.731201,722.222595 
	C264.422699,721.044983 264.170532,720.528015 263.918365,720.011047 
	C263.869019,719.589355 263.819672,719.167725 263.721863,718.152954 
	C263.415253,717.044495 263.157135,716.529053 262.899017,716.013611 
	C262.814178,715.597168 262.729370,715.180786 262.646240,714.181152 
	C262.397675,713.069946 262.147461,712.541870 261.897247,712.013794 
	C261.812103,711.596924 261.726959,711.179993 261.617676,710.184814 
	C261.329620,709.079346 261.065674,708.552307 260.801758,708.025208 
	C260.129791,705.311218 259.457825,702.597290 258.730743,699.223145 
	C258.422668,698.045776 258.169708,697.528503 257.916748,697.011230 
	C257.867249,696.589600 257.817719,696.168030 257.721130,695.153320 
	C257.413910,694.044983 257.153809,693.529602 256.893707,693.014282 
	C256.810516,692.597656 256.727356,692.181030 256.646606,691.181274 
	C256.397003,690.070251 256.144928,689.542236 255.892868,689.014282 
	C255.809097,688.597229 255.725342,688.180115 255.617554,687.184814 
	C255.329483,686.079529 255.065445,685.552368 254.801407,685.025269 
	C254.747711,684.604675 254.694031,684.184021 254.616913,683.184937 
	C254.329239,682.079468 254.064972,681.552368 253.800705,681.025330 
	C253.126938,678.311646 252.453171,675.597900 251.726257,672.225708 
	C251.419159,671.048889 251.165192,670.530457 250.911224,670.012085 
	C250.862396,669.590393 250.813553,669.168762 250.721161,668.154419 
	C250.414139,667.046204 250.150665,666.530640 249.887192,666.015076 
	C249.806107,665.598267 249.725021,665.181458 249.648544,664.182007 
	C249.397507,663.071350 249.141861,662.543213 248.886200,662.015137 
	C248.805405,661.598267 248.724625,661.181458 248.648438,660.182251 
	C248.397430,659.071594 248.141815,658.543396 247.886200,658.015137 
	C247.805405,657.598267 247.724609,657.181458 247.648438,656.182251 
	C247.397430,655.071594 247.141815,654.543396 246.886200,654.015137 
	C246.805405,653.598267 246.724609,653.181458 246.648224,652.182251 
	C246.396011,651.071777 246.139389,650.543701 245.882782,650.015625 
	C245.801483,649.598083 245.720169,649.180481 245.612732,648.185669 
	C245.323624,647.080811 245.060638,646.553284 244.797668,646.025757 
	C244.744339,645.604980 244.691040,645.184143 244.612228,644.186035 
	C244.324524,643.080872 244.062332,642.553101 243.800140,642.025330 
	C243.746887,641.604614 243.693649,641.183899 243.615692,640.185669 
	C243.327362,639.080627 243.063751,638.552979 242.800140,638.025391 
	C242.746826,637.604614 242.693497,637.183777 242.613586,636.185303 
	C242.323776,635.080383 242.060547,634.553040 241.797302,634.025757 
	C241.744476,633.604980 241.691650,633.184143 241.612869,632.185913 
	C241.323715,631.080872 241.060516,630.553284 240.797302,630.025757 
	C240.744003,629.604980 240.690720,629.184204 240.611816,628.186279 
	C240.322968,627.081421 240.059753,626.553589 239.796539,626.025818 
	C239.743515,625.605042 239.690491,625.184204 239.611816,624.186279 
	C239.322845,623.081360 239.059540,622.553589 238.796204,622.025818 
	C238.742737,621.605042 238.689285,621.184265 238.610626,620.186646 
	C238.321518,619.081909 238.057617,618.554016 237.793716,618.026184 
	C237.740585,617.605347 237.687469,617.184570 237.609680,616.187012 
	C237.321259,615.082275 237.057495,614.554199 236.793716,614.026184 
	C236.740540,613.605286 236.687378,613.184448 236.608734,612.187134 
	C236.321075,611.082336 236.058899,610.554016 235.796722,610.025635 
	C235.744293,609.604736 235.691849,609.183899 235.612869,608.185913 
	C235.322586,607.081177 235.058868,606.553528 234.795135,606.025940 
	C234.743729,605.605835 234.692307,605.185730 234.649277,604.183594 
	C234.396088,603.073303 234.134506,602.545044 233.872925,602.016724 
	C233.795914,601.599487 233.718903,601.182312 233.649780,600.183350 
	C233.396088,599.073303 233.134506,598.545044 232.872925,598.016724 
	C232.795441,597.599548 232.717957,597.182312 232.649231,596.186401 
	C232.406235,595.076111 232.154465,594.544617 231.902695,594.013062 
	C231.852325,593.591736 231.801971,593.170410 231.716187,592.161255 
	C231.421402,591.053345 231.162064,590.533264 230.902740,590.013123 
	C230.851822,589.591858 230.800903,589.170654 230.715210,588.161682 
	C230.421066,587.053711 230.161713,586.533386 229.902344,586.013123 
	C229.489883,583.978149 229.077393,581.943176 228.624207,579.259216 
	C228.320099,578.082214 228.056671,577.554199 227.793243,577.026184 
	C227.742737,576.606018 227.692230,576.185913 227.650864,575.184448 
	C227.396027,574.074524 227.132034,573.545898 226.868042,573.017334 
	C226.791641,572.600098 226.715225,572.182800 226.649597,571.187500 
	C226.407028,570.077332 226.153687,569.545349 225.900345,569.013306 
	C225.849335,568.592163 225.798325,568.171021 225.715042,567.162598 
	C225.421875,566.054688 225.160995,565.534058 224.900116,565.013367 
	C224.817017,564.292847 224.733917,563.572266 224.614670,562.231445 
	C224.315887,561.082886 224.053238,560.554688 223.790604,560.026489 
	C223.739624,559.606384 223.688644,559.186340 223.648102,558.185364 
	C223.393509,557.075623 223.128479,556.546692 222.863434,556.017822 
	C222.787994,555.600464 222.712570,555.183044 222.648285,554.187988 
	C222.405029,553.078125 222.150665,552.545959 221.896301,552.013855 
	C221.484741,549.978638 221.073196,547.943420 220.619965,545.260132 
	C220.315887,544.083435 220.053497,543.554871 219.791122,543.026306 
	C219.740372,542.606262 219.689636,542.186279 219.651688,541.188599 
	C219.408707,540.078491 219.152954,539.546082 218.897202,539.013672 
	C218.846161,538.592651 218.795105,538.171570 218.714996,537.164307 
	C218.422729,536.056641 218.159546,535.535278 217.896362,535.013855 
	C217.813766,534.293152 217.731171,533.572388 217.610077,532.231934 
	C217.310272,531.083740 217.048965,530.555359 216.787674,530.026917 
	C216.737183,529.606873 216.686676,529.186768 216.649094,528.186279 
	C216.393158,527.076782 216.124329,526.547729 215.855484,526.018738 
	C215.781723,525.601196 215.707947,525.183655 215.648376,524.189636 
	C215.406174,523.080200 215.149765,522.547180 214.893341,522.014221 
	C214.482452,519.978760 214.071579,517.943359 213.616425,515.260010 
	C213.311371,514.083557 213.050583,513.554993 212.789795,513.026489 
	C212.738983,512.606506 212.688171,512.186523 212.651901,511.189545 
	C212.408798,510.079773 212.151169,509.546936 211.893539,509.014130 
	C211.842072,508.593170 211.790604,508.172180 211.713058,507.166504 
	C211.422501,506.059265 211.158020,505.536743 210.893524,505.014191 
	C210.810883,504.293427 210.728241,503.572632 210.607880,502.232849 
	C210.308655,501.084869 210.047134,500.555939 209.785614,500.026978 
	C209.734818,499.607056 209.684036,499.187134 209.648331,498.187592 
	C209.392014,497.078461 209.120605,496.548950 208.849197,496.019440 
	C208.777451,495.601746 208.705704,495.184052 208.649475,494.190430 
	C208.406815,493.081146 208.148651,492.547852 207.890488,492.014526 
	C207.479996,489.978973 207.069504,487.943451 206.615051,485.260559 
	C206.309677,484.084412 206.048264,483.555603 205.786865,483.026794 
	C205.736008,482.606842 205.685165,482.186859 205.650436,481.190979 
	C205.408356,480.081482 205.150131,479.547943 204.891907,479.014374 
	C204.838928,478.593536 204.785965,478.172729 204.709488,477.169250 
	C204.420944,476.062561 204.155914,475.538513 203.890900,475.014465 
	C203.808823,474.293579 203.726746,473.572662 203.604156,472.232849 
	C203.303024,471.085052 203.042419,470.556244 202.781830,470.027405 
	C202.730148,469.606018 202.678467,469.184601 202.595215,468.188538 
	C202.302917,467.085022 202.042221,466.556213 201.781509,466.027405 
	C201.731491,465.607391 201.681473,465.187347 201.648376,464.191711 
	C201.405899,463.082367 201.146515,462.548645 200.887131,462.014893 
	C200.834045,461.594116 200.780945,461.173340 200.706024,460.170776 
	C200.418503,459.064301 200.152817,458.539581 199.887115,458.014893 
	C199.805679,457.293793 199.724243,456.572662 199.600128,455.233093 
	C199.299896,454.085388 199.042374,453.556183 198.784851,453.026947 
	C198.734665,452.607056 198.684479,452.187195 198.651642,451.187988 
	C198.393768,450.079193 198.118530,449.549652 197.843307,449.020142 
	C197.773849,448.602264 197.704391,448.184418 197.652573,447.191437 
	C197.408936,446.082550 197.147659,445.548767 196.886383,445.014984 
	C196.475113,442.979370 196.063858,440.943756 195.605698,438.261566 
	C195.299164,437.085846 195.039520,436.556732 194.779907,436.027588 
	C194.729492,435.607697 194.679062,435.187775 194.648468,434.193298 
	C194.406403,433.084290 194.144501,432.549866 193.882599,432.015472 
	C193.829605,431.594818 193.776611,431.174133 193.705353,430.172607 
	C193.418930,429.066315 193.150772,428.540894 192.882614,428.015472 
	C192.801666,427.294220 192.720718,426.572968 192.597900,425.234161 
	C192.298553,424.086761 192.041107,423.556885 191.783646,423.027039 
	C191.732376,422.609253 191.681122,422.191467 191.570847,421.118652 
	C190.599991,417.376923 189.688156,414.290222 188.776321,411.203552 
	C188.525558,411.238068 188.274811,411.272614 188.024063,411.307159 
	C188.412750,415.529877 188.801437,419.752625 189.190125,423.975342 
	C189.386749,428.698334 189.583374,433.421356 189.721619,438.881226 
	C189.839783,441.403564 190.016296,443.189087 190.192825,444.974579 
	C190.389084,449.036560 190.585342,453.098572 190.723053,457.868652 
	C190.841644,460.042633 191.018784,461.508453 191.195923,462.974304 
	C191.392151,467.036469 191.588379,471.098633 191.724792,475.868317 
	C191.841446,478.042053 192.017899,479.508301 192.194336,480.974518 
	C192.366943,484.043823 192.539566,487.113129 192.655502,490.902100 
	C192.797577,493.405914 192.996353,495.190094 193.195099,496.974274 
	C193.368195,500.039886 193.541306,503.105499 193.656723,506.876099 
	C193.798645,509.045349 193.998276,510.509613 194.197906,511.973907 
	C194.369507,515.043701 194.541107,518.113464 194.657806,521.882446 
	C194.801682,524.045776 195.000443,525.509827 195.199219,526.973938 
	C195.370544,529.713196 195.541855,532.452515 195.658234,535.886658 
	C195.802856,538.045532 196.002441,539.509460 196.202026,540.973450 
	C196.372482,543.713013 196.542923,546.452576 196.660110,549.887329 
	C196.805527,552.046143 197.004196,553.509766 197.202881,554.973328 
	C197.366379,556.732666 197.529877,558.492065 197.648331,560.854492 
	C197.804199,562.296143 198.005112,563.134583 198.206024,563.973083 
	C198.324081,565.325867 198.442154,566.678589 198.581543,568.774780 
	C198.833389,570.665588 199.063919,571.813049 199.294434,572.960510 
	C199.383850,573.996887 199.473267,575.033203 199.576355,576.726135 
	C199.824509,577.908936 200.058990,578.435120 200.293457,578.961365 
	C200.385300,579.682068 200.477127,580.402710 200.581177,581.753174 
	C200.827072,582.909058 201.060745,583.435242 201.294403,583.961426 
	C201.385971,584.682312 201.477554,585.403198 201.576981,586.751221 
	C201.777664,587.911865 201.970505,588.445374 202.163361,588.978882 
	C202.298080,589.694153 202.432800,590.409363 202.577271,591.751526 
	C202.779099,592.911926 202.971161,593.445374 203.163239,593.978882 
	C203.298386,594.694092 203.433533,595.409241 203.580627,596.749756 
	C203.883774,598.079834 204.174988,598.784546 204.466217,599.489319 
	C204.525070,599.827637 204.583923,600.165955 204.614349,600.938599 
	C204.779129,601.908081 204.972336,602.443359 205.165558,602.978577 
	C205.300827,603.693848 205.436081,604.409119 205.582306,605.749512 
	C205.884262,607.079529 206.175232,607.784424 206.466217,608.489319 
	C206.525070,608.827637 206.583923,609.165955 206.614349,609.938538 
	C206.779251,610.908081 206.972580,611.443298 207.165894,611.978577 
	C207.298950,612.694153 207.431992,613.409668 207.577850,614.750122 
	C207.882523,616.079834 208.174362,616.784546 208.466217,617.489319 
	C208.524063,617.828064 208.581909,618.166870 208.620026,618.990479 
	C208.833771,620.303406 209.067261,621.131592 209.300751,621.959717 
	C209.390671,622.681152 209.480591,623.402588 209.583923,624.753540 
	C209.832352,625.908752 210.067352,626.434448 210.302368,626.960083 
	C210.391846,627.681702 210.481308,628.403259 210.580444,629.752319 
	C210.782455,630.912598 210.974792,631.445374 211.167130,631.978149 
	C211.301193,632.693970 211.435242,633.409729 211.579758,634.752930 
	C211.783447,635.912842 211.976685,636.445374 212.169922,636.977966 
	C212.302933,637.693115 212.435944,638.408203 212.584900,639.792725 
	C212.836670,641.294250 213.072510,642.126343 213.308334,642.958496 
	C213.396103,643.679810 213.483871,644.401123 213.586304,645.791870 
	C213.835999,647.293823 214.071030,648.126465 214.306061,648.959045 
	C214.393341,649.680481 214.480621,650.401917 214.585236,651.792725 
	C214.791580,653.300598 214.980560,654.139099 215.169556,654.977661 
	C215.343018,656.094971 215.516464,657.212219 215.649872,658.900879 
	C215.843048,660.300964 216.076233,661.129639 216.309418,661.958313 
	C216.395630,662.680115 216.481812,663.401855 216.586426,664.793457 
	C216.840637,666.294861 217.076447,667.126343 217.312241,667.957886 
	C217.396164,668.995117 217.480072,670.032410 217.586517,671.794617 
	C217.843506,673.665588 218.077972,674.811646 218.312454,675.957642 
	C218.438629,677.081360 218.564789,678.205078 218.651749,679.935059 
	C218.847290,681.679871 219.082062,682.818481 219.316833,683.957031 
	C219.441681,685.081299 219.566528,686.205505 219.653320,687.896057 
	C219.815308,689.298828 220.015366,690.135315 220.215424,690.971802 
	C220.373016,692.732361 220.530609,694.492920 220.655212,696.894043 
	C220.818741,698.680420 221.015213,699.826233 221.211700,700.972107 
	C221.368866,702.732422 221.526031,704.492676 221.648193,706.921631 
	C221.856476,709.044312 222.099747,710.498413 222.343033,711.952454 
	C222.460999,713.717041 222.578949,715.481628 222.658386,717.916138 
	C222.818787,720.047791 223.017731,721.509583 223.216675,722.971313 
	C223.376450,725.713074 223.536209,728.454773 223.659637,731.866333 
	C223.779663,733.686646 223.936050,734.837036 224.092438,735.987488 
	C224.294327,740.703674 224.496216,745.419922 224.661194,750.881958 
	C224.781906,753.414246 224.939529,755.200562 225.097168,756.986938 
	C225.290131,766.472717 225.396683,775.961487 225.727966,785.442444 
	C225.829086,788.336853 225.182709,790.226013 222.095444,790.863525 
	C207.492142,793.878845 192.970810,797.370117 178.276611,799.835632 
	C169.782471,801.260864 158.155502,791.175537 155.782974,781.245239 
	C147.752991,747.635620 139.450806,714.082947 132.038055,680.335999 
	C122.441994,636.649475 112.872742,592.933960 104.613350,548.982666 
	C93.560020,490.163879 87.664131,430.699860 85.452850,370.872528 
	C84.942810,357.073151 82.960899,343.307281 82.892380,329.519867 
	C82.846535,320.295074 84.885201,311.045563 86.177078,301.833191 
	C87.170921,294.746124 88.457222,287.700104 89.604950,280.634460 
	C89.711586,279.977966 89.969673,279.249512 89.797859,278.659119 
	C87.778633,271.720856 85.690643,264.802612 83.387589,257.099060 
	C71.294235,265.424683 66.554199,276.514343 65.939644,289.943115 
	C65.494049,289.883698 65.048447,289.824249 64.602852,289.764832 
	C64.037094,288.948181 63.186123,288.207031 62.947098,287.303894 
	C56.101734,261.439514 48.706631,235.698898 42.735378,209.632462 
	C38.647152,191.786041 42.257092,173.902405 46.345192,156.298477 
	C52.487297,129.849747 60.938961,104.143402 71.189941,79.028534 
	C75.137550,69.356918 79.762360,59.960701 83.667999,50.273453 
	C85.259018,46.327206 85.398766,41.806026 86.897499,37.808365 
	C87.724037,35.603676 89.619385,33.055706 91.679749,32.173939 
	C110.023445,24.323414 128.961014,18.244148 148.589920,14.509808 
	C151.076874,14.036671 153.741898,14.499433 156.778168,15.144705 
	C157.173676,16.867588 157.115417,17.974365 157.057159,19.081142 
	C156.596649,24.723848 156.136124,30.366554 155.174637,36.517227 
	C153.112091,38.702511 151.687256,40.538319 149.962524,42.026550 
	C145.341324,46.014076 139.724411,46.422585 133.988419,45.962563 
	C129.478531,45.600872 128.486496,47.940285 129.123627,51.782936 
	C129.555557,54.387955 129.833832,57.022594 130.363022,59.606667 
	C133.611847,75.470634 136.625290,91.390366 140.270676,107.163589 
	C144.571701,125.773766 146.234055,145.220612 156.769958,161.981995 
	C157.243912,162.736023 157.017914,163.930008 156.937439,165.258820 
	C153.801208,175.963058 151.195389,186.446152 147.740021,196.641312 
	C146.049194,201.630142 146.486572,205.932571 148.271362,210.552338 
	C152.925385,222.598846 157.218414,234.790329 162.102310,246.741348 
	C171.525360,269.799805 181.105423,292.797150 190.923813,315.689697 
	C195.753433,326.950439 200.611191,328.844208 211.099991,322.804535 
	C227.484146,313.370178 243.442383,303.193207 259.508728,293.214355 
	C261.056610,292.252960 262.095001,290.471283 263.369873,289.070374 
	C261.433350,289.447174 259.203857,289.335907 257.613922,290.290192 
	C252.354813,293.446777 247.544250,297.390503 242.165375,300.299652 
	C230.031082,306.862274 217.577347,312.833557 205.430298,319.373688 
	C201.320602,321.586365 198.811295,320.640717 196.977692,316.876251 
	C191.949951,306.554169 186.616013,296.352509 182.178726,285.777802 
	C174.083527,266.485687 166.896667,246.809555 158.666321,227.578003 
	C152.250977,212.587479 148.682083,197.874481 155.708450,182.058151 
	C158.108093,176.656570 159.277710,170.708542 161.203156,164.742630 
	C171.202972,151.746338 181.688278,139.475647 190.652939,126.179665 
	C203.538071,107.068962 215.377014,87.249420 227.493668,67.628166 
	C229.116714,64.999840 229.994659,61.820198 230.717361,58.777054 
	C230.966766,57.726887 229.978989,55.516903 229.072220,55.193291 
	C220.802094,52.241817 213.505600,47.954178 207.866959,41.090481 
	C207.720444,40.912132 207.231964,41.014713 206.902969,40.986279 
	C208.821579,36.601765 210.867584,32.266808 212.601273,27.810358 
	C213.384781,25.796375 213.547089,23.540726 212.969116,21.130280 
	C214.718796,19.212185 216.202621,16.892414 218.302094,15.502825 
	C219.987976,14.386985 222.713150,13.487600 224.474228,14.054504 
	C237.906799,18.378624 251.367691,22.696186 264.511230,27.808935 
	C273.615997,31.350637 282.436981,35.788048 290.944122,40.603676 
	C293.673553,42.148743 296.199036,45.963547 296.767700,49.110401 
	C300.846649,71.682076 304.177521,94.387962 308.159332,116.978363 
	C317.318512,168.942215 327.018921,220.825516 331.520538,273.473846 
	C333.491760,296.527893 334.874878,319.631836 336.682373,342.700775 
	C336.936340,345.942444 335.743011,347.569519 332.992065,348.884369 
	C318.400116,355.858612 303.274567,355.285217 288.060486,351.893311 
	C286.605042,351.568878 285.000854,348.571136 284.758636,346.651306 
	C281.633331,321.878265 278.543091,297.097321 275.845093,272.274780 
	C272.677032,243.127502 269.494904,214.016739 258.773132,186.389053 
	C258.141541,184.761612 257.261597,183.230545 256.497223,181.654617 
	C255.848022,181.805069 255.198807,181.955505 254.549606,182.105942 
	C255.054779,190.423996 254.824646,198.867935 256.222748,207.033096 
	C258.888794,222.603348 262.998413,237.929703 265.567291,253.512497 
	C269.056854,274.680450 271.471710,296.023010 274.690155,317.238739 
	C280.334045,354.443085 285.781372,391.686157 292.130402,428.772736 
	C304.545288,501.291565 317.734772,573.677612 330.186829,646.190247 
	C337.056519,686.194885 342.992645,726.359192 349.574097,766.414673 
	C350.648560,772.954041 349.354919,778.320923 344.575134,782.719727 
	C339.322327,787.553833 334.217529,792.681274 328.365234,796.681641 
	C324.868500,799.071777 319.983063,800.855713 315.858765,800.610474 
	C306.799744,800.071716 297.757996,798.390198 288.866760,796.452148 
	C286.507355,795.937927 284.719696,792.800293 282.634979,790.236572 
	C282.336578,789.078857 282.072693,788.551636 281.808807,788.024475 
	C281.469116,786.628174 281.129425,785.231873 280.729218,783.195557 
	C280.420746,782.040405 280.172729,781.525330 279.924744,781.010193 
	C279.877014,780.588318 279.829254,780.166443 279.724731,779.149658 
	C279.417297,778.040344 279.166687,777.525940 278.916077,777.011475 
	C278.826477,776.595581 278.736908,776.179626 278.644226,775.180176 
	C278.398773,774.068298 278.156464,773.539978 277.914154,773.011658 
	C277.824768,772.595520 277.735382,772.179382 277.623596,771.184082 
	C277.336731,770.078186 277.072235,769.551453 276.807739,769.024658 
	C276.134521,766.311096 275.461334,763.597534 274.727417,760.221375 
	C274.414307,759.043335 274.161835,758.527832 273.909393,758.012390 
M107.538910,296.930542 
	C105.717323,294.151367 104.107925,291.197296 102.007164,288.648193 
	C100.319626,286.600464 100.363129,281.922821 96.149704,283.680817 
	C95.620880,283.901489 96.468422,289.833160 98.037216,292.228760 
	C103.303284,300.270264 109.322311,307.814789 114.745483,315.759583 
	C116.346031,318.104340 117.755127,321.117401 117.843834,323.869568 
	C118.433067,342.150696 118.610283,360.444733 118.979942,378.733398 
	C119.282288,393.691437 119.607864,408.649506 120.041183,423.604126 
	C120.218819,429.734772 120.608292,435.863892 121.072395,441.980713 
	C122.325066,458.491150 123.781433,474.986786 124.940742,491.503448 
	C125.799736,503.741455 126.305450,516.004089 127.025703,528.252380 
	C127.070564,529.015198 127.614456,529.748657 127.926178,530.495789 
	C128.998047,528.543457 129.047684,526.758240 128.990463,524.976440 
	C128.334763,504.559570 127.539597,484.146240 127.044456,463.725586 
	C126.775803,452.645599 127.281326,441.545258 126.946266,430.468933 
	C126.570320,418.040863 125.650230,405.628967 124.946236,393.211182 
	C124.580208,386.754730 124.075218,380.304840 123.798180,373.844879 
	C123.144005,358.590790 122.532921,343.333923 122.121254,328.072357 
	C122.094284,327.072662 124.042938,325.036438 124.831223,325.150513 
	C132.450272,326.253113 134.411453,320.554260 135.879364,315.449036 
	C142.376785,292.851654 148.533966,270.154755 154.582138,247.432098 
	C155.328552,244.627838 154.683975,241.453323 154.683975,238.450394 
	C154.228622,238.363907 153.773254,238.277420 153.317902,238.190918 
	C152.859222,239.270096 152.285309,240.315613 151.958771,241.433395 
	C144.840195,265.800934 137.752075,290.177368 130.650528,314.549866 
	C129.098846,319.875305 126.764961,320.675781 123.182205,316.535797 
	C117.872742,310.400574 113.029945,303.861511 107.538910,296.930542 
M252.043076,450.358490 
	C253.928818,459.433350 255.939117,468.484406 257.677307,477.587433 
	C263.201874,506.519836 268.623138,535.471924 274.089020,564.415527 
	C275.105133,569.795959 276.143433,575.172180 277.171509,580.550293 
	C277.845825,580.431213 278.520142,580.312134 279.194458,580.192993 
	C278.491486,558.951721 272.102081,538.529663 268.892517,517.654663 
	C265.624207,496.397308 261.656921,475.246918 257.948853,454.057861 
	C254.269836,433.035065 250.629013,412.004852 246.793488,391.010406 
	C242.978256,370.127014 238.941681,349.284058 235.002167,328.423370 
	C234.128189,328.581787 233.254227,328.740204 232.380249,328.898651 
	C234.788712,369.729218 246.477570,409.147095 252.043076,450.358490 
M88.782364,116.870621 
	C90.948830,139.405838 93.115288,161.941071 95.281754,184.476288 
	C94.790039,184.583145 94.298325,184.689987 93.806610,184.796829 
	C87.263481,179.718536 80.720352,174.640244 74.177223,169.561935 
	C73.758926,170.029526 73.340630,170.497101 72.922340,170.964676 
	C73.390976,171.926865 73.658669,173.078445 74.359375,173.821899 
	C81.277908,181.162628 88.221504,188.481277 95.266861,195.699951 
	C97.370773,197.855637 99.178146,197.283447 99.901733,194.326981 
	C100.172150,193.222061 100.097641,192.001190 100.012573,190.845551 
	C98.725113,173.355469 97.437149,155.865356 96.093109,138.379562 
	C94.761681,121.057701 93.429657,103.735123 91.891510,86.431213 
	C91.756119,84.907982 90.090927,83.520744 89.136284,82.070335 
	C87.873741,83.523270 85.440025,85.059029 85.535980,86.415901 
	C86.234802,96.297836 87.442574,106.143768 88.782364,116.870621 
M296.243896,671.187683 
	C293.096802,655.979187 289.949707,640.770691 286.802612,625.562195 
	C286.104095,625.713806 285.405579,625.865417 284.707062,626.017029 
	C292.924011,675.055054 302.250610,723.871765 313.287598,772.347534 
	C314.053802,772.199036 314.820007,772.050476 315.586243,771.901978 
	C309.229340,738.600281 302.872467,705.298645 296.243896,671.187683 
M183.979752,365.651733 
	C182.982025,356.618225 181.829529,347.597961 181.054184,338.545410 
	C180.685974,334.246338 179.506210,331.476044 174.523056,331.951385 
	C171.159805,332.272247 169.242203,330.808838 168.930008,327.200317 
	C168.032394,316.825256 167.117813,306.448120 165.948456,296.101318 
	C165.056076,288.205383 163.765045,280.354523 162.651352,272.483612 
	C162.175369,272.471893 161.699387,272.460175 161.223404,272.448486 
	C160.814117,274.615814 160.030762,276.790009 160.070343,278.949127 
	C160.164322,284.073792 160.473969,289.209595 161.009430,294.308014 
	C162.286819,306.470367 163.683182,318.621307 165.169754,330.759949 
	C165.591400,334.202881 167.126282,336.675354 171.371841,336.059296 
	C174.404556,335.619202 176.516129,336.802246 176.971756,340.200226 
	C177.937729,347.403839 178.930618,354.605438 180.047318,361.786865 
	C181.069778,368.362152 182.269623,374.909912 183.391296,381.469788 
	C183.978577,381.412994 184.565857,381.356201 185.153137,381.299408 
	C184.766754,376.385254 184.380371,371.471100 183.979752,365.651733 
M86.782860,242.254318 
	C87.350403,240.180328 87.665474,237.994141 88.528847,236.051636 
	C92.428047,227.278839 95.906044,218.383377 95.875908,208.614365 
	C95.868195,206.113998 94.798019,203.616928 94.215965,201.118332 
	C93.141327,203.419296 91.718895,205.624939 91.057236,208.039093 
	C89.067482,215.299011 87.468521,222.665192 85.537727,229.942337 
	C83.747398,236.690033 81.806946,243.382126 84.493347,250.501877 
	C85.160225,248.005905 85.827095,245.509949 86.782860,242.254318 
M165.014450,198.524094 
	C163.869354,194.175186 161.101868,192.329391 159.507980,194.812469 
	C158.260696,196.755539 158.266052,199.713058 158.364273,202.194138 
	C158.398178,203.050674 160.389740,203.829727 161.487045,204.644180 
	C162.664810,202.873596 163.842560,201.102997 165.014450,198.524094 
z"/>
<path fill="#39373A" opacity="1.000000" stroke="none" 
	d="
M206.593201,41.155220 
	C207.231964,41.014713 207.720444,40.912132 207.866959,41.090481 
	C213.505600,47.954178 220.802094,52.241817 229.072220,55.193291 
	C229.978989,55.516903 230.966766,57.726887 230.717361,58.777054 
	C229.994659,61.820198 229.116714,64.999840 227.493668,67.628166 
	C215.377014,87.249420 203.538071,107.068962 190.652939,126.179665 
	C181.688278,139.475647 171.202972,151.746338 160.811981,164.729431 
	C159.190598,164.962234 158.154266,164.940659 157.117920,164.919098 
	C157.017914,163.930008 157.243912,162.736023 156.769958,161.981995 
	C146.234055,145.220612 144.571701,125.773766 140.270676,107.163589 
	C136.625290,91.390366 133.611847,75.470634 130.363022,59.606667 
	C129.833832,57.022594 129.555557,54.387955 129.123627,51.782936 
	C128.486496,47.940285 129.478531,45.600872 133.988419,45.962563 
	C139.724411,46.422585 145.341324,46.014076 149.962524,42.026550 
	C151.687256,40.538319 153.112091,38.702511 154.971741,36.935844 
	C155.320663,42.313488 155.290619,47.782623 155.435760,53.247108 
	C156.249008,83.863075 157.033295,114.480232 158.023880,145.090622 
	C158.169586,149.593750 159.362564,154.062973 161.094971,158.652557 
	C174.907822,118.868958 189.194885,79.555717 206.593201,41.155220 
z"/>
<path fill="#555356" opacity="1.000000" stroke="none" 
	d="
M157.435089,19.097441 
	C157.115417,17.974365 157.173676,16.867588 157.131561,15.355082 
	C161.382858,16.892601 165.787903,18.726538 170.068542,20.815380 
	C173.216568,22.351536 175.680969,21.866484 178.080139,19.352613 
	C180.325317,17.000080 182.835342,14.900289 185.722244,12.233421 
	C184.529938,14.364545 183.614151,15.888128 182.805511,17.466599 
	C179.524536,23.871145 174.244919,25.639650 167.480759,22.736193 
	C164.321899,21.380280 161.039459,20.312248 157.435089,19.097441 
z"/>
<path fill="#4E4C4F" opacity="1.000000" stroke="none" 
	d="
M170.917572,102.916496 
	C169.084305,103.546013 167.418640,103.829735 165.752960,104.113449 
	C165.422409,101.991714 164.632645,99.797577 164.951004,97.778145 
	C165.115341,96.735786 167.248734,96.003853 168.492447,95.131653 
	C169.577179,96.821976 170.788666,98.449860 171.670547,100.240105 
	C171.940414,100.787918 171.305649,101.781342 170.917572,102.916496 
z"/>
<path fill="#676568" opacity="1.000000" stroke="none" 
	d="
M195.593079,24.058456 
	C201.022919,23.178587 206.047470,22.245068 211.670364,21.200384 
	C204.901108,28.173977 193.842102,28.694536 191.098404,22.055868 
	C192.757629,22.846626 193.972717,23.425718 195.593079,24.058456 
z"/>
<path fill="#333134" opacity="1.000000" stroke="none" 
	d="
M160.215897,132.138016 
	C161.864288,131.458176 163.343307,131.116058 164.822342,130.773941 
	C165.069550,132.742371 165.779510,134.809830 165.387482,136.641449 
	C165.158463,137.711502 163.168777,138.404709 161.971176,139.267441 
	C161.200974,137.809799 160.294525,136.402908 159.723831,134.870926 
	C159.475769,134.205017 159.917892,133.281982 160.215897,132.138016 
z"/>
<path fill="#4E4C4F" opacity="1.000000" stroke="none" 
	d="
M173.173859,63.047234 
	C173.727280,62.979198 173.921036,62.928024 174.050217,62.997299 
	C177.601074,64.901443 177.752258,67.778175 175.687973,70.655289 
	C175.093048,71.484474 172.190720,71.911880 171.682312,71.338600 
	C169.084396,68.409332 169.367416,65.453827 173.173859,63.047234 
z"/>
<path fill="#242124" opacity="1.000000" stroke="none" 
	d="
M182.781097,37.851387 
	C180.967636,38.021763 178.200516,38.192501 178.095810,37.743046 
	C177.693832,36.017353 177.776962,33.940090 178.450760,32.313656 
	C178.741577,31.611698 180.912415,31.688608 182.229218,31.411701 
	C182.502899,33.463436 182.776581,35.515167 182.781097,37.851387 
z"/>
<path fill="#B3B0B3" opacity="1.000000" stroke="none" 
	d="
M189.415894,423.801636 
	C188.801437,419.752625 188.412750,415.529877 188.024063,411.307159 
	C188.274811,411.272614 188.525558,411.238068 188.776321,411.203552 
	C189.688156,414.290222 190.599991,417.376923 191.432983,420.833344 
	C190.783310,422.011353 190.212494,422.819641 189.415894,423.801636 
z"/>
<path fill="#B3B0B3" opacity="1.000000" stroke="none" 
	d="
M225.321777,756.708435 
	C224.939529,755.200562 224.781906,753.414246 224.748657,751.307251 
	C225.097504,752.801025 225.321960,754.615479 225.321777,756.708435 
z"/>
<path fill="#B3B0B3" opacity="1.000000" stroke="none" 
	d="
M190.431625,444.710083 
	C190.016296,443.189087 189.839783,441.403564 189.810242,439.306885 
	C190.194977,440.812347 190.432693,442.628967 190.431625,444.710083 
z"/>
<path fill="#B3B0B3" opacity="1.000000" stroke="none" 
	d="
M193.436066,496.709412 
	C192.996353,495.190094 192.797577,493.405914 192.728027,491.303131 
	C193.130508,492.804535 193.403778,494.624512 193.436066,496.709412 
z"/>
<path fill="#B3B0B3" opacity="1.000000" stroke="none" 
	d="
M192.431931,480.730530 
	C192.017899,479.508301 191.841446,478.042053 191.812836,476.285950 
	C192.196945,477.492889 192.433228,478.989685 192.431931,480.730530 
z"/>
<path fill="#B3B0B3" opacity="1.000000" stroke="none" 
	d="
M197.443115,554.728882 
	C197.004196,553.509766 196.805527,552.046143 196.735199,550.283936 
	C197.136810,551.485046 197.410080,552.984802 197.443115,554.728882 
z"/>
<path fill="#B3B0B3" opacity="1.000000" stroke="none" 
	d="
M223.461426,722.729980 
	C223.017731,721.509583 222.818787,720.047791 222.744339,718.286072 
	C223.147934,719.486938 223.427048,720.987854 223.461426,722.729980 
z"/>
<path fill="#B3B0B3" opacity="1.000000" stroke="none" 
	d="
M196.441956,540.728699 
	C196.002441,539.509460 195.802856,538.045532 195.732498,536.283325 
	C196.135101,537.484741 196.408493,538.984375 196.441956,540.728699 
z"/>
<path fill="#B3B0B3" opacity="1.000000" stroke="none" 
	d="
M194.437408,511.728882 
	C193.998276,510.509613 193.798645,509.045349 193.728668,507.282898 
	C194.131180,508.484436 194.404053,509.984131 194.437408,511.728882 
z"/>
<path fill="#B3B0B3" opacity="1.000000" stroke="none" 
	d="
M222.566010,711.693359 
	C222.099747,710.498413 221.856476,709.044312 221.738998,707.287964 
	C222.172852,708.468506 222.480911,709.951416 222.566010,711.693359 
z"/>
<path fill="#B3B0B3" opacity="1.000000" stroke="none" 
	d="
M195.438324,526.728577 
	C195.000443,525.509827 194.801682,524.045776 194.731903,522.283325 
	C195.133087,523.484436 195.405258,524.983826 195.438324,526.728577 
z"/>
<path fill="#B3B0B3" opacity="1.000000" stroke="none" 
	d="
M191.432617,462.729462 
	C191.018784,461.508453 190.841644,460.042633 190.811127,458.286255 
	C191.194931,459.492035 191.432114,460.988312 191.432617,462.729462 
z"/>
<path fill="#B3B0B3" opacity="1.000000" stroke="none" 
	d="
M218.521301,675.749634 
	C218.077972,674.811646 217.843506,673.665588 217.710617,672.165100 
	C218.118179,673.054260 218.424164,674.297913 218.521301,675.749634 
z"/>
<path fill="#B3B0B3" opacity="1.000000" stroke="none" 
	d="
M224.311127,735.750549 
	C223.936050,734.837036 223.779663,733.686646 223.747192,732.261230 
	C224.090683,733.162109 224.310242,734.337830 224.311127,735.750549 
z"/>
<path fill="#B3B0B3" opacity="1.000000" stroke="none" 
	d="
M199.504166,572.752930 
	C199.063919,571.813049 198.833389,570.665588 198.702087,569.163940 
	C199.105515,570.054871 199.409698,571.300110 199.504166,572.752930 
z"/>
<path fill="#B3B0B3" opacity="1.000000" stroke="none" 
	d="
M219.527283,683.717896 
	C219.082062,682.818481 218.847290,681.679871 218.739212,680.263550 
	C219.156509,681.150085 219.447128,682.314453 219.527283,683.717896 
z"/>
<path fill="#B3B0B3" opacity="1.000000" stroke="none" 
	d="
M221.452209,700.755371 
	C221.015213,699.826233 220.818741,698.680420 220.746246,697.260376 
	C221.144394,698.170349 221.418549,699.354553 221.452209,700.755371 
z"/>
<path fill="#B3B0B3" opacity="1.000000" stroke="none" 
	d="
M198.437653,563.787964 
	C198.005112,563.134583 197.804199,562.296143 197.734192,561.221558 
	C198.133163,561.857910 198.401215,562.730408 198.437653,563.787964 
z"/>
<path fill="#B3B0B3" opacity="1.000000" stroke="none" 
	d="
M217.519608,667.790161 
	C217.076447,667.126343 216.840637,666.294861 216.707092,665.137329 
	C217.115219,665.748291 217.421097,666.685364 217.519608,667.790161 
z"/>
<path fill="#B3B0B3" opacity="1.000000" stroke="none" 
	d="
M216.519470,661.755493 
	C216.076233,661.129639 215.843048,660.300964 215.737701,659.228943 
	C216.153534,659.841309 216.441528,660.697021 216.519470,661.755493 
z"/>
<path fill="#B3B0B3" opacity="1.000000" stroke="none" 
	d="
M215.365662,654.798462 
	C214.980560,654.139099 214.791580,653.300598 214.705658,652.136536 
	C215.059753,652.747070 215.310760,653.683167 215.365662,654.798462 
z"/>
<path fill="#B3B0B3" opacity="1.000000" stroke="none" 
	d="
M220.450394,690.789062 
	C220.015366,690.135315 219.815308,689.298828 219.742249,688.224243 
	C220.141281,688.859558 220.413315,689.732910 220.450394,690.789062 
z"/>
<path fill="#B3B0B3" opacity="1.000000" stroke="none" 
	d="
M214.513519,648.791565 
	C214.071030,648.126465 213.835999,647.293823 213.704712,646.136230 
	C214.112595,646.748779 214.416779,647.686462 214.513519,648.791565 
z"/>
<path fill="#B3B0B3" opacity="1.000000" stroke="none" 
	d="
M213.515503,642.790649 
	C213.072510,642.126343 212.836670,641.294250 212.704056,640.136597 
	C213.112411,640.748291 213.417542,641.685486 213.515503,642.790649 
z"/>
<path fill="#B3B0B3" opacity="1.000000" stroke="none" 
	d="
M209.511475,621.755249 
	C209.067261,621.131592 208.833771,620.303406 208.719910,619.228943 
	C209.133759,619.838684 209.427979,620.694702 209.511475,621.755249 
z"/>
<path fill="#B3B0B3" opacity="1.000000" stroke="none" 
	d="
M212.359085,636.852539 
	C211.976685,636.445374 211.783447,635.912842 211.699036,635.097107 
	C212.054672,635.451660 212.301468,636.089417 212.359085,636.852539 
z"/>
<path fill="#B3B0B3" opacity="1.000000" stroke="none" 
	d="
M246.691803,654.153259 
	C247.141815,654.543396 247.397430,655.071594 247.526703,655.887878 
	C247.099365,655.547729 246.798370,654.919556 246.691803,654.153259 
z"/>
<path fill="#B3B0B3" opacity="1.000000" stroke="none" 
	d="
M276.600586,769.152710 
	C277.072235,769.551453 277.336731,770.078186 277.494446,770.892090 
	C277.056244,770.546387 276.724823,769.913574 276.600586,769.152710 
z"/>
<path fill="#B3B0B3" opacity="1.000000" stroke="none" 
	d="
M245.688004,650.153442 
	C246.139389,650.543701 246.396011,651.071777 246.526489,651.887878 
	C246.097977,651.547668 245.795609,650.919434 245.688004,650.153442 
z"/>
<path fill="#B3B0B3" opacity="1.000000" stroke="none" 
	d="
M244.591141,646.155029 
	C245.060638,646.553284 245.323624,647.080811 245.480774,647.895020 
	C245.044830,647.549255 244.714722,646.916809 244.591141,646.155029 
z"/>
<path fill="#B3B0B3" opacity="1.000000" stroke="none" 
	d="
M277.722839,773.152893 
	C278.156464,773.539978 278.398773,774.068298 278.519287,774.886597 
	C278.108795,774.549072 277.820160,773.921570 277.722839,773.152893 
z"/>
<path fill="#B3B0B3" opacity="1.000000" stroke="none" 
	d="
M243.593765,642.154785 
	C244.062332,642.553101 244.324524,643.080872 244.480820,643.895142 
	C244.045731,643.549133 243.716568,642.916687 243.593765,642.154785 
z"/>
<path fill="#B3B0B3" opacity="1.000000" stroke="none" 
	d="
M278.723450,777.163513 
	C279.166687,777.525940 279.417297,778.040344 279.600281,778.856506 
	C279.198700,778.544006 278.864777,777.929749 278.723450,777.163513 
z"/>
<path fill="#B3B0B3" opacity="1.000000" stroke="none" 
	d="
M242.593735,638.155090 
	C243.063751,638.552979 243.327362,639.080627 243.484619,639.894775 
	C243.047974,639.549133 242.717651,638.916931 242.593735,638.155090 
z"/>
<path fill="#B3B0B3" opacity="1.000000" stroke="none" 
	d="
M247.691788,658.153259 
	C248.141815,658.543396 248.397430,659.071594 248.526703,659.887878 
	C248.099350,659.547729 247.798355,658.919556 247.691788,658.153259 
z"/>
<path fill="#B3B0B3" opacity="1.000000" stroke="none" 
	d="
M241.590851,634.155334 
	C242.060547,634.553040 242.323776,635.080383 242.481842,635.894653 
	C242.045929,635.549377 241.715164,634.917114 241.590851,634.155334 
z"/>
<path fill="#B3B0B3" opacity="1.000000" stroke="none" 
	d="
M240.590744,630.155518 
	C241.060516,630.553284 241.323715,631.080872 241.481155,631.895264 
	C241.044998,631.549805 240.714600,630.917603 240.590744,630.155518 
z"/>
<path fill="#B3B0B3" opacity="1.000000" stroke="none" 
	d="
M211.356720,631.853088 
	C210.974792,631.445374 210.782455,630.912598 210.699005,630.096924 
	C211.054016,630.452026 211.300156,631.090027 211.356720,631.853088 
z"/>
<path fill="#B3B0B3" opacity="1.000000" stroke="none" 
	d="
M239.590210,626.155640 
	C240.059753,626.553589 240.322968,627.081421 240.479889,627.895691 
	C240.043701,627.549988 239.713791,626.917725 239.590210,626.155640 
z"/>
<path fill="#B3B0B3" opacity="1.000000" stroke="none" 
	d="
M279.730774,781.161377 
	C280.172729,781.525330 280.420746,782.040405 280.601807,782.856689 
	C280.202179,782.542725 279.869476,781.927673 279.730774,781.161377 
z"/>
<path fill="#B3B0B3" opacity="1.000000" stroke="none" 
	d="
M210.503036,626.843872 
	C210.067352,626.434448 209.832352,625.908752 209.702026,625.098267 
	C210.105713,625.451416 210.404709,626.089539 210.503036,626.843872 
z"/>
<path fill="#B3B0B3" opacity="1.000000" stroke="none" 
	d="
M238.589966,622.155701 
	C239.059540,622.553589 239.322845,623.081360 239.479889,623.895630 
	C239.043640,623.549988 238.713669,622.917786 238.589966,622.155701 
z"/>
<path fill="#B3B0B3" opacity="1.000000" stroke="none" 
	d="
M281.601624,788.151733 
	C282.072693,788.551636 282.336578,789.078857 282.492432,789.892700 
	C282.054413,789.545959 281.724396,788.912415 281.601624,788.151733 
z"/>
<path fill="#B3B0B3" opacity="1.000000" stroke="none" 
	d="
M266.596497,731.152954 
	C267.067169,731.552185 267.330627,732.079102 267.487915,732.893066 
	C267.050903,732.546936 266.720123,731.913757 266.596497,731.152954 
z"/>
<path fill="#B3B0B3" opacity="1.000000" stroke="none" 
	d="
M260.594910,708.153687 
	C261.065674,708.552307 261.329620,709.079346 261.487488,709.893311 
	C261.050323,709.547546 260.719177,708.914795 260.594910,708.153687 
z"/>
<path fill="#B3B0B3" opacity="1.000000" stroke="none" 
	d="
M256.698975,693.162598 
	C257.153809,693.529602 257.413910,694.044983 257.597351,694.859985 
	C257.181885,694.543457 256.843079,693.927124 256.698975,693.162598 
z"/>
<path fill="#B3B0B3" opacity="1.000000" stroke="none" 
	d="
M255.698578,689.152100 
	C256.144928,689.542236 256.397003,690.070251 256.524231,690.887024 
	C256.101044,690.547180 255.802673,689.918579 255.698578,689.152100 
z"/>
<path fill="#B3B0B3" opacity="1.000000" stroke="none" 
	d="
M261.703674,712.152222 
	C262.147461,712.541870 262.397675,713.069946 262.523346,713.887024 
	C262.102570,713.547546 261.806335,712.919067 261.703674,712.152222 
z"/>
<path fill="#B3B0B3" opacity="1.000000" stroke="none" 
	d="
M262.704803,716.162354 
	C263.157135,716.529053 263.415253,717.044495 263.597534,717.859863 
	C263.184662,717.543579 262.847626,716.927307 262.704803,716.162354 
z"/>
<path fill="#B3B0B3" opacity="1.000000" stroke="none" 
	d="
M254.594574,685.153931 
	C255.065445,685.552368 255.329483,686.079529 255.487366,686.893433 
	C255.050064,686.547729 254.718918,685.915161 254.594574,685.153931 
z"/>
<path fill="#B3B0B3" opacity="1.000000" stroke="none" 
	d="
M253.594055,681.154175 
	C254.064972,681.552368 254.329239,682.079468 254.487366,682.893433 
	C254.049957,682.547913 253.718674,681.915466 253.594055,681.154175 
z"/>
<path fill="#B3B0B3" opacity="1.000000" stroke="none" 
	d="
M263.721069,720.157288 
	C264.170532,720.528015 264.422699,721.044983 264.598267,721.860840 
	C264.189056,721.541016 263.856415,720.922302 263.721069,720.157288 
z"/>
<path fill="#B3B0B3" opacity="1.000000" stroke="none" 
	d="
M257.719421,697.157471 
	C258.169708,697.528503 258.422668,698.045776 258.598145,698.861328 
	C258.187805,698.540955 257.854980,697.922302 257.719421,697.157471 
z"/>
<path fill="#B3B0B3" opacity="1.000000" stroke="none" 
	d="
M267.709229,735.152100 
	C268.149811,735.541443 268.397400,736.069641 268.521057,736.887085 
	C268.103485,736.547852 267.809875,735.919373 267.709229,735.152100 
z"/>
<path fill="#B3B0B3" opacity="1.000000" stroke="none" 
	d="
M250.712997,670.156616 
	C251.165192,670.530457 251.419159,671.048889 251.592834,671.864258 
	C251.179932,671.541260 250.847336,670.921204 250.712997,670.156616 
z"/>
<path fill="#B3B0B3" opacity="1.000000" stroke="none" 
	d="
M268.708801,739.162476 
	C269.158875,739.528137 269.415070,740.043091 269.598206,740.858704 
	C269.188385,740.543457 268.851624,739.927612 268.708801,739.162476 
z"/>
<path fill="#B3B0B3" opacity="1.000000" stroke="none" 
	d="
M249.691711,666.162598 
	C250.150665,666.530640 250.414139,667.046204 250.597900,667.860901 
	C250.177521,667.543396 249.836868,666.926697 249.691711,666.162598 
z"/>
<path fill="#B3B0B3" opacity="1.000000" stroke="none" 
	d="
M271.599854,750.153198 
	C272.071716,750.551392 272.336517,751.078064 272.495300,751.891907 
	C272.057159,751.546570 271.724976,750.914124 271.599854,750.153198 
z"/>
<path fill="#B3B0B3" opacity="1.000000" stroke="none" 
	d="
M272.716187,754.151978 
	C273.154999,754.540161 273.401001,755.067810 273.524628,755.885620 
	C273.109314,755.547607 272.816376,754.919556 272.716187,754.151978 
z"/>
<path fill="#B3B0B3" opacity="1.000000" stroke="none" 
	d="
M248.691849,662.153137 
	C249.141861,662.543213 249.397507,663.071350 249.527100,663.887573 
	C249.099854,663.547485 248.798676,662.919312 248.691849,662.153137 
z"/>
<path fill="#B3B0B3" opacity="1.000000" stroke="none" 
	d="
M273.716125,758.162231 
	C274.161835,758.527832 274.414307,759.043335 274.595032,759.859375 
	C274.189819,759.544067 273.856323,758.928101 273.716125,758.162231 
z"/>
<path fill="#B3B0B3" opacity="1.000000" stroke="none" 
	d="
M204.689270,479.145142 
	C205.150131,479.547943 205.408356,480.081482 205.531464,480.895691 
	C205.093094,480.542847 204.789856,479.909393 204.689270,479.145142 
z"/>
<path fill="#B3B0B3" opacity="1.000000" stroke="none" 
	d="
M218.696243,539.146545 
	C219.152954,539.546082 219.408707,540.078491 219.532196,540.893433 
	C219.098389,540.543823 218.796844,539.911621 218.696243,539.146545 
z"/>
<path fill="#B3B0B3" opacity="1.000000" stroke="none" 
	d="
M217.693848,535.154297 
	C218.159546,535.535278 218.422729,536.056641 218.591431,536.870850 
	C218.161743,536.540710 217.826538,535.917664 217.693848,535.154297 
z"/>
<path fill="#B3B0B3" opacity="1.000000" stroke="none" 
	d="
M216.581909,530.157410 
	C217.048965,530.555359 217.310272,531.083740 217.466019,531.898315 
	C217.032349,531.552307 216.704239,530.920105 216.581909,530.157410 
z"/>
<path fill="#B3B0B3" opacity="1.000000" stroke="none" 
	d="
M215.658844,526.155396 
	C216.124329,526.547729 216.393158,527.076782 216.529922,527.891052 
	C216.085953,527.548218 215.774078,526.920166 215.658844,526.155396 
z"/>
<path fill="#B3B0B3" opacity="1.000000" stroke="none" 
	d="
M214.691605,522.145874 
	C215.149765,522.547180 215.406174,523.080200 215.528351,523.894897 
	C215.092697,523.543579 214.791275,522.910583 214.691605,522.145874 
z"/>
<path fill="#B3B0B3" opacity="1.000000" stroke="none" 
	d="
M212.584045,513.157593 
	C213.050583,513.554993 213.311371,514.083557 213.467072,514.898254 
	C213.034088,514.552551 212.706192,513.920593 212.584045,513.157593 
z"/>
<path fill="#B3B0B3" opacity="1.000000" stroke="none" 
	d="
M211.691528,509.145935 
	C212.151169,509.546936 212.408798,510.079773 212.533051,510.894226 
	C212.096298,510.543152 211.792923,509.910461 211.691528,509.145935 
z"/>
<path fill="#B3B0B3" opacity="1.000000" stroke="none" 
	d="
M210.690430,505.153442 
	C211.158020,505.536743 211.422501,506.059265 211.588745,506.873291 
	C211.156113,506.540710 210.821716,505.916718 210.690430,505.153442 
z"/>
<path fill="#B3B0B3" opacity="1.000000" stroke="none" 
	d="
M209.580231,500.158020 
	C210.047134,500.555939 210.308655,501.084869 210.463104,501.899475 
	C210.028976,501.553070 209.701920,500.921051 209.580231,500.158020 
z"/>
<path fill="#B3B0B3" opacity="1.000000" stroke="none" 
	d="
M208.652542,496.155884 
	C209.120605,496.548950 209.392014,497.078461 209.529480,497.892334 
	C209.082321,497.548553 208.769104,496.920410 208.652542,496.155884 
z"/>
<path fill="#B3B0B3" opacity="1.000000" stroke="none" 
	d="
M207.688110,492.145721 
	C208.148651,492.547852 208.406815,493.081146 208.530243,493.895477 
	C208.092224,493.543304 207.788971,492.910095 207.688110,492.145721 
z"/>
<path fill="#B3B0B3" opacity="1.000000" stroke="none" 
	d="
M205.581299,483.158203 
	C206.048264,483.555603 206.309677,484.084412 206.465118,484.899048 
	C206.031357,484.553131 205.703552,483.921356 205.581299,483.158203 
z"/>
<path fill="#B3B0B3" opacity="1.000000" stroke="none" 
	d="
M219.585236,543.156982 
	C220.053497,543.554871 220.315887,544.083435 220.471603,544.897949 
	C220.036407,544.551819 219.707886,543.919800 219.585236,543.156982 
z"/>
<path fill="#B3B0B3" opacity="1.000000" stroke="none" 
	d="
M203.687439,475.152466 
	C204.155914,475.538513 204.420944,476.062561 204.583420,476.876526 
	C204.148575,476.541107 203.816284,475.915802 203.687439,475.152466 
z"/>
<path fill="#B3B0B3" opacity="1.000000" stroke="none" 
	d="
M202.576385,470.158447 
	C203.042419,470.556244 203.303024,471.085052 203.458435,471.899780 
	C203.025803,471.553589 202.698364,470.921509 202.576385,470.158447 
z"/>
<path fill="#B3B0B3" opacity="1.000000" stroke="none" 
	d="
M201.576141,466.158508 
	C202.042221,466.556213 202.302917,467.085022 202.458435,467.899719 
	C202.025757,467.553619 201.698257,466.921631 201.576141,466.158508 
z"/>
<path fill="#B3B0B3" opacity="1.000000" stroke="none" 
	d="
M200.683960,462.145050 
	C201.146515,462.548645 201.405899,463.082367 201.529877,463.896301 
	C201.089920,463.542755 200.785355,462.908966 200.683960,462.145050 
z"/>
<path fill="#B3B0B3" opacity="1.000000" stroke="none" 
	d="
M199.682922,458.151672 
	C200.152817,458.539581 200.418503,459.064301 200.579346,459.878235 
	C200.142578,459.541107 199.810654,458.914764 199.682922,458.151672 
z"/>
<path fill="#B3B0B3" opacity="1.000000" stroke="none" 
	d="
M198.579895,453.158142 
	C199.042374,453.556183 199.299896,454.085388 199.453308,454.900421 
	C199.024429,454.553925 198.699692,453.921600 198.579895,453.158142 
z"/>
<path fill="#B3B0B3" opacity="1.000000" stroke="none" 
	d="
M197.646301,449.156464 
	C198.118530,449.549652 198.393768,450.079193 198.533813,450.892395 
	C198.082169,450.548340 197.765717,449.920563 197.646301,449.156464 
z"/>
<path fill="#B3B0B3" opacity="1.000000" stroke="none" 
	d="
M196.683472,445.145905 
	C197.147659,445.548767 197.408936,446.082550 197.534393,446.896179 
	C197.092575,446.542969 196.786560,445.909882 196.683472,445.145905 
z"/>
<path fill="#B3B0B3" opacity="1.000000" stroke="none" 
	d="
M194.574768,436.159119 
	C195.039520,436.556732 195.299164,437.085846 195.453781,437.900757 
	C195.022400,437.554535 194.696030,436.922607 194.574768,436.159119 
z"/>
<path fill="#B3B0B3" opacity="1.000000" stroke="none" 
	d="
M193.679016,432.145264 
	C194.144501,432.549866 194.406403,433.084290 194.530518,433.897705 
	C194.086960,433.542847 193.781174,432.908936 193.679016,432.145264 
z"/>
<path fill="#B3B0B3" opacity="1.000000" stroke="none" 
	d="
M192.677994,428.151733 
	C193.150772,428.540894 193.418930,429.066315 193.579102,429.879852 
	C193.138535,429.541321 192.805954,428.914642 192.677994,428.151733 
z"/>
<path fill="#B3B0B3" opacity="1.000000" stroke="none" 
	d="
M191.578995,423.158630 
	C192.041107,423.556885 192.298553,424.086761 192.450241,424.901733 
	C192.021088,424.554657 191.697723,423.922455 191.578995,423.158630 
z"/>
<path fill="#B3B0B3" opacity="1.000000" stroke="none" 
	d="
M230.701630,590.154907 
	C231.162064,590.533264 231.421402,591.053345 231.592117,591.868103 
	C231.169159,591.540710 230.834839,590.918640 230.701630,590.154907 
z"/>
<path fill="#B3B0B3" opacity="1.000000" stroke="none" 
	d="
M208.626862,617.220215 
	C208.174362,616.784546 207.882523,616.079834 207.696503,615.094360 
	C208.130707,615.526184 208.459106,616.238586 208.626862,617.220215 
z"/>
<path fill="#B3B0B3" opacity="1.000000" stroke="none" 
	d="
M236.587173,614.155579 
	C237.057495,614.554199 237.321259,615.082275 237.477325,615.896484 
	C237.039963,615.550110 236.710297,614.917542 236.587173,614.155579 
z"/>
<path fill="#B3B0B3" opacity="1.000000" stroke="none" 
	d="
M235.590668,610.155457 
	C236.058899,610.554016 236.321075,611.082336 236.476044,611.896729 
	C236.040771,611.550293 235.712692,610.917786 235.590668,610.155457 
z"/>
<path fill="#B3B0B3" opacity="1.000000" stroke="none" 
	d="
M207.356613,611.813110 
	C206.972580,611.443298 206.779251,610.908081 206.712677,610.177490 
	C207.075394,610.537292 207.311371,611.092468 207.356613,611.813110 
z"/>
<path fill="#B3B0B3" opacity="1.000000" stroke="none" 
	d="
M234.589127,606.156372 
	C235.058868,606.553528 235.322586,607.081177 235.480591,607.895386 
	C235.044281,607.550293 234.713699,606.918579 234.589127,606.156372 
z"/>
<path fill="#B3B0B3" opacity="1.000000" stroke="none" 
	d="
M206.626923,608.220581 
	C206.175232,607.784424 205.884262,607.079529 205.699707,606.094238 
	C206.133301,606.526428 206.460464,607.239136 206.626923,608.220581 
z"/>
<path fill="#B3B0B3" opacity="1.000000" stroke="none" 
	d="
M233.677185,602.153748 
	C234.134506,602.545044 234.396088,603.073303 234.529205,603.888733 
	C234.094315,603.547485 233.787872,602.919128 233.677185,602.153748 
z"/>
<path fill="#B3B0B3" opacity="1.000000" stroke="none" 
	d="
M205.357010,602.813599 
	C204.972336,602.443359 204.779129,601.908081 204.712677,601.177490 
	C205.075775,601.537659 205.312134,602.093140 205.357010,602.813599 
z"/>
<path fill="#B3B0B3" opacity="1.000000" stroke="none" 
	d="
M232.677185,598.153748 
	C233.134506,598.545044 233.396088,599.073303 233.529221,599.888733 
	C233.094330,599.547485 232.787888,598.919128 232.677185,598.153748 
z"/>
<path fill="#B3B0B3" opacity="1.000000" stroke="none" 
	d="
M204.626862,599.220337 
	C204.174988,598.784546 203.883774,598.079834 203.698212,597.094360 
	C204.131760,597.526184 204.459641,598.238770 204.626862,599.220337 
z"/>
<path fill="#B3B0B3" opacity="1.000000" stroke="none" 
	d="
M231.702728,594.146240 
	C232.154465,594.544617 232.406235,595.076111 232.528473,595.891846 
	C232.100204,595.543823 231.801483,594.911682 231.702728,594.146240 
z"/>
<path fill="#B3B0B3" opacity="1.000000" stroke="none" 
	d="
M203.353012,593.854004 
	C202.971161,593.445374 202.779099,592.911926 202.695038,592.096008 
	C203.049622,592.452148 203.296204,593.090637 203.353012,593.854004 
z"/>
<path fill="#B3B0B3" opacity="1.000000" stroke="none" 
	d="
M237.587128,618.155701 
	C238.057617,618.554016 238.321518,619.081909 238.478394,619.896118 
	C238.041092,619.550049 237.710800,618.917603 237.587128,618.155701 
z"/>
<path fill="#B3B0B3" opacity="1.000000" stroke="none" 
	d="
M202.352921,588.854126 
	C201.970505,588.445374 201.777664,587.911865 201.693420,587.096069 
	C202.048828,587.452332 202.295654,588.090881 202.352921,588.854126 
z"/>
<path fill="#B3B0B3" opacity="1.000000" stroke="none" 
	d="
M229.701172,586.154907 
	C230.161713,586.533386 230.421066,587.053711 230.591110,587.868530 
	C230.167862,587.540894 229.833939,586.918762 229.701172,586.154907 
z"/>
<path fill="#B3B0B3" opacity="1.000000" stroke="none" 
	d="
M201.494751,583.845337 
	C201.060745,583.435242 200.827072,582.909058 200.697464,582.098022 
	C201.099396,582.451843 201.397247,583.090515 201.494751,583.845337 
z"/>
<path fill="#B3B0B3" opacity="1.000000" stroke="none" 
	d="
M227.586838,577.156616 
	C228.056671,577.554199 228.320099,578.082214 228.477203,578.896545 
	C228.040726,578.550903 227.710587,577.918945 227.586838,577.156616 
z"/>
<path fill="#B3B0B3" opacity="1.000000" stroke="none" 
	d="
M200.494080,578.845581 
	C200.058990,578.435120 199.824509,577.908936 199.695282,577.097900 
	C200.098572,577.451965 200.396637,578.090820 200.494080,578.845581 
z"/>
<path fill="#B3B0B3" opacity="1.000000" stroke="none" 
	d="
M226.672943,573.155396 
	C227.132034,573.545898 227.396027,574.074524 227.530792,574.889526 
	C227.093658,574.548462 226.785736,573.920898 226.672943,573.155396 
z"/>
<path fill="#B3B0B3" opacity="1.000000" stroke="none" 
	d="
M225.699951,569.146240 
	C226.153687,569.545349 226.407028,570.077332 226.529114,570.892822 
	C226.098419,570.543945 225.798996,569.911560 225.699951,569.146240 
z"/>
<path fill="#B3B0B3" opacity="1.000000" stroke="none" 
	d="
M224.698502,565.154663 
	C225.160995,565.534058 225.421875,566.054688 225.591431,566.869263 
	C225.165710,566.540833 224.831299,565.918396 224.698502,565.154663 
z"/>
<path fill="#B3B0B3" opacity="1.000000" stroke="none" 
	d="
M223.584549,560.156860 
	C224.053238,560.554688 224.315887,561.082886 224.472061,561.897339 
	C224.036575,561.551514 223.707535,560.919373 223.584549,560.156860 
z"/>
<path fill="#B3B0B3" opacity="1.000000" stroke="none" 
	d="
M222.667725,556.155029 
	C223.128479,556.546692 223.393509,557.075623 223.528229,557.890503 
	C223.089264,557.548401 222.780640,556.920288 222.667725,556.155029 
z"/>
<path fill="#B3B0B3" opacity="1.000000" stroke="none" 
	d="
M221.695038,552.145874 
	C222.150665,552.545959 222.405029,553.078125 222.527710,553.893433 
	C222.095276,553.543640 221.794525,552.910767 221.695038,552.145874 
z"/>
<path fill="#1D1B1E" opacity="1.000000" stroke="none" 
	d="
M107.763702,297.212463 
	C113.029945,303.861511 117.872742,310.400574 123.182205,316.535797 
	C126.764961,320.675781 129.098846,319.875305 130.650528,314.549866 
	C137.752075,290.177368 144.840195,265.800934 151.958771,241.433395 
	C152.285309,240.315613 152.859222,239.270096 153.317902,238.190918 
	C153.773254,238.277420 154.228622,238.363907 154.683975,238.450394 
	C154.683975,241.453323 155.328552,244.627838 154.582138,247.432098 
	C148.533966,270.154755 142.376785,292.851654 135.879364,315.449036 
	C134.411453,320.554260 132.450272,326.253113 124.831223,325.150513 
	C124.042938,325.036438 122.094284,327.072662 122.121254,328.072357 
	C122.532921,343.333923 123.144005,358.590790 123.798180,373.844879 
	C124.075218,380.304840 124.580208,386.754730 124.946236,393.211182 
	C125.650230,405.628967 126.570320,418.040863 126.946266,430.468933 
	C127.281326,441.545258 126.775803,452.645599 127.044456,463.725586 
	C127.539597,484.146240 128.334763,504.559570 128.990463,524.976440 
	C129.047684,526.758240 128.998047,528.543457 127.926178,530.495789 
	C127.614456,529.748657 127.070564,529.015198 127.025703,528.252380 
	C126.305450,516.004089 125.799736,503.741455 124.940742,491.503448 
	C123.781433,474.986786 122.325066,458.491150 121.072395,441.980713 
	C120.608292,435.863892 120.218819,429.734772 120.041183,423.604126 
	C119.607864,408.649506 119.282288,393.691437 118.979942,378.733398 
	C118.610283,360.444733 118.433067,342.150696 117.843834,323.869568 
	C117.755127,321.117401 116.346031,318.104340 114.745483,315.759583 
	C109.322311,307.814789 103.303284,300.270264 98.037216,292.228760 
	C96.468422,289.833160 95.620880,283.901489 96.149704,283.680817 
	C100.363129,281.922821 100.319626,286.600464 102.007164,288.648193 
	C104.107925,291.197296 105.717323,294.151367 107.763702,297.212463 
z"/>
<path fill="#1D1A1D" opacity="1.000000" stroke="none" 
	d="
M252.012970,449.932373 
	C246.477570,409.147095 234.788712,369.729218 232.380249,328.898651 
	C233.254227,328.740204 234.128189,328.581787 235.002167,328.423370 
	C238.941681,349.284058 242.978256,370.127014 246.793488,391.010406 
	C250.629013,412.004852 254.269836,433.035065 257.948853,454.057861 
	C261.656921,475.246918 265.624207,496.397308 268.892517,517.654663 
	C272.102081,538.529663 278.491486,558.951721 279.194458,580.192993 
	C278.520142,580.312134 277.845825,580.431213 277.171509,580.550293 
	C276.143433,575.172180 275.105133,569.795959 274.089020,564.415527 
	C268.623138,535.471924 263.201874,506.519836 257.677307,477.587433 
	C255.939117,468.484406 253.928818,459.433350 252.012970,449.932373 
z"/>
<path fill="#1D1B1E" opacity="1.000000" stroke="none" 
	d="
M156.937424,165.258820 
	C158.154266,164.940659 159.190598,164.962234 160.618134,164.997009 
	C159.277710,170.708542 158.108093,176.656570 155.708450,182.058151 
	C148.682083,197.874481 152.250977,212.587479 158.666321,227.578003 
	C166.896667,246.809555 174.083527,266.485687 182.178726,285.777802 
	C186.616013,296.352509 191.949951,306.554169 196.977692,316.876251 
	C198.811295,320.640717 201.320602,321.586365 205.430298,319.373688 
	C217.577347,312.833557 230.031082,306.862274 242.165375,300.299652 
	C247.544250,297.390503 252.354813,293.446777 257.613922,290.290192 
	C259.203857,289.335907 261.433350,289.447174 263.369873,289.070374 
	C262.095001,290.471283 261.056610,292.252960 259.508728,293.214355 
	C243.442383,303.193207 227.484146,313.370178 211.099991,322.804535 
	C200.611191,328.844208 195.753433,326.950439 190.923813,315.689697 
	C181.105423,292.797150 171.525360,269.799805 162.102310,246.741348 
	C157.218414,234.790329 152.925385,222.598846 148.271362,210.552338 
	C146.486572,205.932571 146.049194,201.630142 147.740021,196.641312 
	C151.195389,186.446152 153.801208,175.963058 156.937424,165.258820 
z"/>
<path fill="#1E1C1F" opacity="1.000000" stroke="none" 
	d="
M88.635941,116.435852 
	C87.442574,106.143768 86.234802,96.297836 85.535980,86.415901 
	C85.440025,85.059029 87.873741,83.523270 89.136284,82.070335 
	C90.090927,83.520744 91.756119,84.907982 91.891510,86.431213 
	C93.429657,103.735123 94.761681,121.057701 96.093109,138.379562 
	C97.437149,155.865356 98.725113,173.355469 100.012573,190.845551 
	C100.097641,192.001190 100.172150,193.222061 99.901733,194.326981 
	C99.178146,197.283447 97.370773,197.855637 95.266861,195.699951 
	C88.221504,188.481277 81.277908,181.162628 74.359375,173.821899 
	C73.658669,173.078445 73.390976,171.926865 72.922340,170.964676 
	C73.340630,170.497101 73.758926,170.029526 74.177223,169.561935 
	C80.720352,174.640244 87.263481,179.718536 93.806610,184.796829 
	C94.298325,184.689987 94.790039,184.583145 95.281754,184.476288 
	C93.115288,161.941071 90.948830,139.405838 88.635941,116.435852 
z"/>
<path fill="#2F2D30" opacity="1.000000" stroke="none" 
	d="
M296.379730,671.592285 
	C302.872467,705.298645 309.229340,738.600281 315.586243,771.901978 
	C314.820007,772.050476 314.053802,772.199036 313.287598,772.347534 
	C302.250610,723.871765 292.924011,675.055054 284.707062,626.017029 
	C285.405579,625.865417 286.104095,625.713806 286.802612,625.562195 
	C289.949707,640.770691 293.096802,655.979187 296.379730,671.592285 
z"/>
<path fill="#1C1A1D" opacity="1.000000" stroke="none" 
	d="
M183.986862,366.104340 
	C184.380371,371.471100 184.766754,376.385254 185.153137,381.299408 
	C184.565857,381.356201 183.978577,381.412994 183.391296,381.469788 
	C182.269623,374.909912 181.069778,368.362152 180.047318,361.786865 
	C178.930618,354.605438 177.937729,347.403839 176.971756,340.200226 
	C176.516129,336.802246 174.404556,335.619202 171.371841,336.059296 
	C167.126282,336.675354 165.591400,334.202881 165.169754,330.759949 
	C163.683182,318.621307 162.286819,306.470367 161.009430,294.308014 
	C160.473969,289.209595 160.164322,284.073792 160.070343,278.949127 
	C160.030762,276.790009 160.814117,274.615814 161.223404,272.448486 
	C161.699387,272.460175 162.175369,272.471893 162.651352,272.483612 
	C163.765045,280.354523 165.056076,288.205383 165.948456,296.101318 
	C167.117813,306.448120 168.032394,316.825256 168.930008,327.200317 
	C169.242203,330.808838 171.159805,332.272247 174.523056,331.951385 
	C179.506210,331.476044 180.685974,334.246338 181.054184,338.545410 
	C181.829529,347.597961 182.982025,356.618225 183.986862,366.104340 
z"/>
<path fill="#1D1B1E" opacity="1.000000" stroke="none" 
	d="
M86.638412,242.634155 
	C85.827095,245.509949 85.160225,248.005905 84.493347,250.501877 
	C81.806946,243.382126 83.747398,236.690033 85.537727,229.942337 
	C87.468521,222.665192 89.067482,215.299011 91.057236,208.039093 
	C91.718895,205.624939 93.141327,203.419296 94.215973,201.118332 
	C94.798019,203.616928 95.868195,206.113998 95.875908,208.614365 
	C95.906044,218.383377 92.428047,227.278839 88.528847,236.051636 
	C87.665474,237.994141 87.350403,240.180328 86.638412,242.634155 
z"/>
<path fill="#343235" opacity="1.000000" stroke="none" 
	d="
M165.017395,198.928253 
	C163.842560,201.102997 162.664810,202.873596 161.487045,204.644180 
	C160.389740,203.829727 158.398178,203.050674 158.364273,202.194138 
	C158.266052,199.713058 158.260696,196.755539 159.507980,194.812469 
	C161.101868,192.329391 163.869354,194.175186 165.017395,198.928253 
z"/>
</svg>