<svg version="1.1" id="Layer_1" xmlns="http://www.w3.org/2000/svg" xmlns:xlink="http://www.w3.org/1999/xlink" x="0px" y="0px"
	 width="100%" viewBox="0 0 582 818" enable-background="new 0 0 582 818" xml:space="preserve">
<path fill="#FDFBFE" opacity="0.000000" stroke="none" 
	d="
M283.000000,819.000000 
	C188.666672,819.000000 94.833336,819.000000 1.000000,819.000000 
	C1.000000,546.333313 1.000000,273.666656 1.000000,1.000000 
	C195.000000,1.000000 389.000000,1.000000 583.000000,1.000000 
	C583.000000,273.666656 583.000000,546.333313 583.000000,819.000000 
	C483.166656,819.000000 383.333344,819.000000 283.000000,819.000000 
M224.014862,358.848969 
	C224.631058,363.847290 225.247253,368.845581 225.576920,374.365723 
	C225.719009,374.910278 225.861099,375.454803 225.972870,376.907562 
	C226.270630,379.886414 226.568405,382.865295 226.577850,386.365295 
	C226.720047,386.909912 226.862244,387.454529 226.968628,388.847229 
	C227.273483,391.891663 227.578323,394.936127 227.574585,398.329773 
	C227.718079,398.886169 227.861588,399.442596 227.975342,400.921967 
	C228.279022,406.941681 228.582687,412.961365 228.581528,419.559631 
	C228.723755,421.039185 228.865982,422.518768 228.979370,424.933075 
	C229.283203,434.949310 229.587051,444.965515 229.575195,455.722290 
	C229.720993,460.147339 229.866791,464.572388 229.983917,469.934814 
	C229.946274,480.616150 229.908630,491.297455 229.439072,502.538391 
	C212.875870,551.696655 196.278625,600.843567 179.773651,650.021362 
	C175.703262,662.149353 170.402313,674.126099 168.346710,686.613525 
	C164.194229,711.838928 161.931458,737.373474 158.739395,762.761597 
	C158.345474,765.894592 159.599808,766.549927 162.213470,766.638062 
	C183.824524,767.366394 205.434280,768.134277 227.539703,769.351746 
	C232.904877,777.844849 240.070816,784.281250 249.147430,788.663574 
	C264.400330,796.028076 280.451904,800.623901 297.146637,803.312988 
	C312.856689,805.843384 328.263916,805.708252 343.267181,799.706787 
	C354.461609,795.228943 366.015320,793.344971 378.132233,792.556030 
	C391.449310,791.688904 404.798218,789.109924 417.772552,785.843872 
	C429.063751,783.001404 438.355286,776.237671 442.634277,764.691650 
	C444.093964,760.752991 446.282227,758.908569 450.166534,757.780701 
	C476.262177,750.203430 499.538727,737.564453 519.717712,719.177795 
	C523.674011,715.572815 523.911499,712.463379 522.200439,707.943054 
	C506.857849,667.409668 491.275452,626.961426 476.480072,586.227966 
	C455.878418,529.509033 435.802032,472.598450 415.680145,415.706451 
	C403.745575,381.963135 392.153656,348.104767 383.956177,313.190887 
	C373.111481,267.001953 360.568848,221.305817 343.672455,176.901749 
	C338.002289,162.000458 333.429382,146.982697 336.819305,130.692307 
	C338.954437,120.431923 340.171509,109.958885 342.710968,99.809059 
	C347.035217,82.525734 346.092407,66.882278 332.026001,53.941082 
	C330.443298,52.484970 329.706390,49.511795 329.570923,47.184280 
	C329.000610,37.386593 328.888702,27.562822 328.390991,17.759663 
	C328.313934,16.242420 327.101624,14.782819 326.414337,13.296576 
	C325.688141,14.898355 324.359558,16.496431 324.349701,18.102604 
	C324.321136,22.749136 324.918396,27.395273 325.096649,32.048206 
	C325.460815,41.554707 325.940002,51.131676 320.758911,59.743980 
	C315.545715,68.409645 310.077362,76.922829 304.930939,85.627083 
	C303.084473,88.749969 301.577087,88.262787 299.030579,86.454353 
	C284.999634,76.490120 270.981354,66.494621 256.645325,56.982185 
	C252.772385,54.412346 250.554932,51.631577 248.994766,47.283276 
	C245.753220,38.248753 241.797821,29.456781 237.792801,20.722414 
	C237.080444,19.168930 234.710663,18.375452 233.106201,17.231037 
	C232.697327,17.669897 232.288452,18.108757 231.879578,18.547619 
	C233.560104,21.919325 235.393387,25.224548 236.894852,28.674187 
	C243.577347,44.027245 249.820084,59.400558 243.318283,76.620529 
	C241.750641,80.772400 241.660049,85.459305 240.366379,89.741936 
	C237.529907,99.131905 237.871887,108.234413 240.794418,117.619774 
	C243.260941,125.540688 244.744415,133.783508 246.386292,141.939575 
	C247.390442,146.927719 246.598373,151.594467 244.101105,156.340790 
	C229.006973,185.028656 213.902893,213.719528 199.433609,242.724426 
	C192.248596,257.127350 185.500092,271.881470 180.162369,287.042908 
	C170.937317,313.246063 163.479385,340.069550 154.335663,366.303589 
	C143.394836,397.693695 132.227249,429.047089 119.779938,459.859711 
	C101.361298,505.454071 82.098640,550.718933 62.485138,595.815186 
	C49.239632,626.269836 34.785645,656.199341 20.830647,686.344421 
	C19.275181,689.704529 19.394007,692.484802 21.949617,695.482910 
	C31.809462,707.049744 43.522320,715.620728 58.642284,718.778992 
	C63.062672,719.702271 64.098564,721.731628 62.259487,725.806213 
	C61.037514,728.513672 60.013508,731.398682 59.512867,734.309509 
	C59.223347,735.992798 59.527397,738.543640 60.625225,739.578430 
	C69.032478,747.502441 78.633034,753.689392 89.571587,757.536499 
	C94.189369,759.160706 99.024460,760.166992 104.091896,761.544128 
	C110.106720,735.221252 122.612534,712.502930 134.127213,689.334351 
	C136.281616,684.999512 137.709335,679.913452 137.975113,675.091553 
	C140.138992,635.832581 144.105698,596.805359 150.551254,557.991577 
	C154.893250,531.845093 161.671173,506.690277 174.686874,483.396088 
	C176.813141,479.590698 178.275955,475.022949 178.635040,470.690613 
	C180.078781,453.271973 180.786057,435.793335 182.130966,418.365051 
	C182.947449,407.784393 182.919464,396.803314 185.910110,386.790405 
	C193.951523,359.867126 203.405548,333.365601 212.321579,306.704254 
	C212.796600,305.283783 213.481720,303.933594 214.069031,302.550690 
	C214.583054,302.604858 215.097076,302.659027 215.611099,302.713165 
	C218.361862,320.423431 221.112625,338.133698 223.578613,356.365997 
	C223.719925,356.910492 223.861237,357.455017 224.014862,358.848969 
z"/>
<path fill="#040104" opacity="1.000000" stroke="none" 
	d="
M229.870972,501.978790 
	C229.908630,491.297455 229.946274,480.616150 230.266144,469.157684 
	C230.329224,463.914276 230.110062,459.448029 229.890900,454.981750 
	C229.587051,444.965515 229.283203,434.949310 229.243668,424.222046 
	C229.300766,422.001038 229.093567,420.491058 228.886353,418.981079 
	C228.582687,412.961365 228.279022,406.941681 228.212341,400.312927 
	C228.260620,399.129425 228.071899,398.554993 227.883179,397.980560 
	C227.578323,394.936127 227.273483,391.891663 227.198853,388.316040 
	C227.241425,387.137970 227.053802,386.491058 226.866180,385.844147 
	C226.568405,382.865295 226.270630,379.886414 226.200546,376.346252 
	C226.239960,375.137939 226.051697,374.490936 225.863434,373.843903 
	C225.247253,368.845581 224.631058,363.847290 224.221130,358.316895 
	C224.239380,357.137848 224.051392,356.490906 223.863388,355.843964 
	C221.112625,338.133698 218.361862,320.423431 215.611099,302.713165 
	C215.097076,302.659027 214.583054,302.604858 214.069031,302.550690 
	C213.481720,303.933594 212.796600,305.283783 212.321579,306.704254 
	C203.405548,333.365601 193.951523,359.867126 185.910110,386.790405 
	C182.919464,396.803314 182.947449,407.784393 182.130966,418.365051 
	C180.786057,435.793335 180.078781,453.271973 178.635040,470.690613 
	C178.275955,475.022949 176.813141,479.590698 174.686874,483.396088 
	C161.671173,506.690277 154.893250,531.845093 150.551254,557.991577 
	C144.105698,596.805359 140.138992,635.832581 137.975113,675.091553 
	C137.709335,679.913452 136.281616,684.999512 134.127213,689.334351 
	C122.612534,712.502930 110.106720,735.221252 104.091896,761.544128 
	C99.024460,760.166992 94.189369,759.160706 89.571587,757.536499 
	C78.633034,753.689392 69.032478,747.502441 60.625225,739.578430 
	C59.527397,738.543640 59.223347,735.992798 59.512867,734.309509 
	C60.013508,731.398682 61.037514,728.513672 62.259487,725.806213 
	C64.098564,721.731628 63.062672,719.702271 58.642284,718.778992 
	C43.522320,715.620728 31.809462,707.049744 21.949617,695.482910 
	C19.394007,692.484802 19.275181,689.704529 20.830647,686.344421 
	C34.785645,656.199341 49.239632,626.269836 62.485138,595.815186 
	C82.098640,550.718933 101.361298,505.454071 119.779938,459.859711 
	C132.227249,429.047089 143.394836,397.693695 154.335663,366.303589 
	C163.479385,340.069550 170.937317,313.246063 180.162369,287.042908 
	C185.500092,271.881470 192.248596,257.127350 199.433609,242.724426 
	C213.902893,213.719528 229.006973,185.028656 244.101105,156.340790 
	C246.598373,151.594467 247.390442,146.927719 246.386292,141.939575 
	C244.744415,133.783508 243.260941,125.540688 240.794418,117.619774 
	C237.871887,108.234413 237.529907,99.131905 240.366379,89.741936 
	C241.660049,85.459305 241.750641,80.772400 243.318283,76.620529 
	C249.820084,59.400558 243.577347,44.027245 236.894852,28.674187 
	C235.393387,25.224548 233.560104,21.919325 231.879578,18.547619 
	C232.288452,18.108757 232.697327,17.669897 233.106201,17.231037 
	C234.710663,18.375452 237.080444,19.168930 237.792801,20.722414 
	C241.797821,29.456781 245.753220,38.248753 248.994766,47.283276 
	C250.554932,51.631577 252.772385,54.412346 256.645325,56.982185 
	C270.981354,66.494621 284.999634,76.490120 299.030579,86.454353 
	C301.577087,88.262787 303.084473,88.749969 304.930939,85.627083 
	C310.077362,76.922829 315.545715,68.409645 320.758911,59.743980 
	C325.940002,51.131676 325.460815,41.554707 325.096649,32.048206 
	C324.918396,27.395273 324.321136,22.749136 324.349701,18.102604 
	C324.359558,16.496431 325.688141,14.898355 326.414307,13.296568 
	C327.101624,14.782819 328.313934,16.242420 328.390991,17.759663 
	C328.888702,27.562822 329.000610,37.386593 329.570923,47.184280 
	C329.706390,49.511795 330.443298,52.484970 332.026001,53.941082 
	C346.092407,66.882278 347.035217,82.525734 342.710968,99.809059 
	C340.171509,109.958885 338.954437,120.431923 336.819305,130.692307 
	C333.429382,146.982697 338.002289,162.000458 343.672455,176.901749 
	C360.568848,221.305817 373.111481,267.001953 383.956177,313.190887 
	C392.153656,348.104767 403.745575,381.963135 415.680145,415.706451 
	C435.802032,472.598450 455.878418,529.509033 476.480072,586.227966 
	C491.275452,626.961426 506.857849,667.409668 522.200439,707.943054 
	C523.911499,712.463379 523.674011,715.572815 519.717712,719.177795 
	C499.538727,737.564453 476.262177,750.203430 450.166534,757.780701 
	C446.282227,758.908569 444.093964,760.752991 442.634277,764.691650 
	C438.355286,776.237671 429.063751,783.001404 417.772552,785.843872 
	C404.798218,789.109924 391.449310,791.688904 378.132233,792.556030 
	C366.015320,793.344971 354.461609,795.228943 343.267181,799.706787 
	C328.263916,805.708252 312.856689,805.843384 297.146637,803.312988 
	C280.451904,800.623901 264.400330,796.028076 249.147430,788.663574 
	C240.070816,784.281250 232.904877,777.844849 227.319626,768.660522 
	C227.353378,760.341370 227.728760,752.715088 227.839081,745.085022 
	C228.228470,718.155090 228.537231,691.224060 228.857315,664.293152 
	C229.203140,635.199158 229.599670,606.105530 229.837860,577.010559 
	C230.024475,554.214355 230.009537,531.416504 230.064774,508.619324 
	C230.070145,506.405975 229.938843,504.192322 229.870972,501.978790 
M292.502380,361.031586 
	C295.674866,372.549408 298.956512,384.038513 301.994537,395.591675 
	C306.715729,413.545837 311.853455,431.418793 315.739105,449.556549 
	C319.930115,469.119537 322.971405,488.932587 326.352997,508.664185 
	C329.986603,529.866211 333.794708,551.048340 336.860748,572.335083 
	C340.021576,594.279785 342.480865,616.328308 345.060699,638.353210 
	C347.486420,659.062256 350.101044,679.763672 351.832611,700.535156 
	C353.444244,719.868225 354.002197,739.289062 355.021057,758.671509 
	C355.073486,759.668884 354.807892,760.812744 355.214203,761.626953 
	C355.661499,762.523376 356.720306,763.692139 357.502319,763.684448 
	C358.314392,763.676453 359.504211,762.542053 359.823181,761.648376 
	C360.248749,760.456116 360.107544,759.012756 360.013153,757.691284 
	C359.045227,744.138733 357.998993,730.591797 357.051056,717.037903 
	C356.010254,702.156738 354.143646,687.263062 354.257812,672.387268 
	C354.448700,647.509888 348.901764,623.327393 346.719299,598.751221 
	C345.156128,581.148926 342.175812,563.626587 338.976318,546.225159 
	C332.598267,511.536224 326.498352,476.758118 318.664307,442.385895 
	C311.148895,409.411713 301.783112,376.850159 292.856293,344.209625 
	C285.858368,318.621979 278.253296,293.200775 270.990753,267.684937 
	C267.876587,256.743805 264.947021,245.750153 261.933624,234.780365 
	C260.580658,245.738602 274.069427,300.419434 292.502380,361.031586 
M324.990814,262.514099 
	C321.373444,238.498291 317.756104,214.482483 314.138733,190.466675 
	C313.568665,190.537949 312.998566,190.609238 312.428497,190.680527 
	C312.428497,194.722702 312.033875,198.811386 312.503815,202.798157 
	C313.820099,213.964615 315.563080,225.080002 317.001984,236.233032 
	C317.996918,243.945007 318.701874,251.694000 319.652161,259.412201 
	C321.047699,270.746979 322.647980,282.057129 323.971954,293.399872 
	C325.219604,304.088379 326.048309,314.826996 327.369293,325.505493 
	C330.132416,347.841095 333.199951,370.139099 335.942322,392.477112 
	C337.556274,405.623901 338.757233,418.821014 340.196716,431.989716 
	C341.761169,446.301910 343.508331,460.595245 344.948425,474.919678 
	C346.174622,487.116455 346.983978,499.354706 348.147369,511.558411 
	C349.671143,527.542358 351.400360,543.506653 352.967468,559.486633 
	C354.082886,570.860657 355.096588,582.244751 356.119751,593.627563 
	C357.439026,608.305054 358.800873,622.979492 359.993835,637.667358 
	C360.798859,647.579163 361.315796,657.514160 362.053802,667.431946 
	C362.118988,668.307922 362.868195,669.133118 363.957642,671.276123 
	C364.551575,668.751770 365.031952,667.713257 364.999054,666.691223 
	C364.737335,658.561035 364.408051,650.432678 364.042480,642.306335 
	C363.378540,627.549194 362.783264,612.787659 361.949310,598.039856 
	C361.416077,588.610229 360.622253,579.191040 359.735229,569.786926 
	C358.600769,557.759094 357.163910,545.759766 356.028870,533.731995 
	C355.110504,523.999756 354.606262,514.227478 353.630157,504.501892 
	C352.225494,490.505737 350.506317,476.541443 349.022034,462.552887 
	C347.868683,451.683014 346.952515,440.787781 345.780304,429.920105 
	C344.271942,415.935730 342.622314,401.966553 341.016296,387.992798 
	C339.579773,375.493866 338.228210,362.983856 336.641327,350.503876 
	C334.888184,336.716217 332.879120,322.961365 331.037903,309.184662 
	C328.999084,293.929108 327.024139,278.664978 324.990814,262.514099 
M289.803101,462.865509 
	C289.638794,462.393188 289.420563,461.932281 289.317841,461.446899 
	C281.873749,426.264893 274.526611,391.062103 266.968262,355.904694 
	C262.828003,336.646301 258.059814,317.520844 254.059540,298.234924 
	C247.741364,267.773926 241.839813,237.226532 235.713257,206.725494 
	C235.482452,205.576340 234.743134,204.529327 234.240768,203.434708 
	C233.643738,203.583847 233.046707,203.732971 232.449677,203.882095 
	C238.352310,252.911087 248.897385,301.101562 259.806305,349.247345 
	C270.746887,397.532959 281.262909,445.914703 291.964996,494.254333 
	C292.901367,492.726776 293.165710,491.269257 293.008698,489.858643 
	C292.038269,481.140564 290.972961,472.433044 289.803101,462.865509 
M340.031952,286.389069 
	C341.128082,293.753021 342.247650,301.113586 343.315674,308.481598 
	C345.878113,326.160065 348.587372,343.819458 350.918732,361.528534 
	C353.509247,381.206177 355.954712,400.908020 358.069855,420.641510 
	C359.692352,435.778473 360.740601,450.977875 361.976013,466.155090 
	C363.023804,479.027039 363.902802,491.913391 365.067139,504.774292 
	C365.196899,506.207306 366.704285,507.515625 367.572784,508.881775 
	C368.362976,507.302521 369.833771,505.719482 369.824951,504.144714 
	C369.787872,497.518768 369.349091,490.893066 368.979828,484.271606 
	C368.638275,478.147186 368.383392,472.009460 367.764160,465.910706 
	C366.277344,451.266968 364.535736,436.649200 363.022919,422.007935 
	C362.172089,413.773376 361.887482,405.470917 360.798187,397.272095 
	C357.683899,373.832184 354.299011,350.428131 350.999786,327.012909 
	C349.154083,313.913574 347.522369,300.777435 345.341370,287.733612 
	C341.741974,266.206726 337.853241,244.727005 333.923004,223.257324 
	C332.517822,215.581116 330.638397,207.991699 328.975433,200.362686 
	C328.329437,200.463577 327.683441,200.564484 327.037445,200.665375 
	C327.464600,204.610229 327.727295,208.581070 328.345764,212.495682 
	C332.191162,236.837021 336.116333,261.165771 340.031952,286.389069 
M418.062164,567.255005 
	C419.369110,576.929016 420.743500,586.594543 421.967194,596.279114 
	C423.772491,610.566772 425.432190,624.872803 427.224854,639.162109 
	C429.098938,654.100708 431.152954,669.017334 432.951447,683.964783 
	C434.770660,699.084656 436.286255,714.241272 438.134186,729.357422 
	C438.576447,732.975159 439.809235,736.496338 440.678467,740.061890 
	C445.858765,729.612671 410.328857,454.714050 403.133545,447.046936 
	C403.133545,450.655670 402.898590,453.183594 403.177673,455.653412 
	C404.013458,463.050140 404.986084,470.433228 406.021973,477.805237 
	C408.140381,492.881226 410.424255,507.934418 412.472412,523.019714 
	C414.431580,537.449341 416.178192,551.907898 418.062164,567.255005 
M158.011124,474.519897 
	C160.095444,467.029205 164.865219,460.185974 163.743378,450.756165 
	C132.388550,536.218811 101.423248,620.619690 70.457947,705.020569 
	C71.139725,705.321167 71.821510,705.621826 72.503296,705.922485 
	C73.332031,704.480652 74.377098,703.120728 74.958153,701.585205 
	C93.991524,651.285034 113.223488,601.057922 131.872330,550.615234 
	C141.079102,525.712158 149.197433,500.406647 158.011124,474.519897 
M314.491394,155.981140 
	C317.985016,155.981018 321.521332,156.305984 324.955841,155.855408 
	C326.927032,155.596802 328.733124,154.079987 330.613556,153.129578 
	C328.834991,152.412140 327.060394,151.082016 325.277283,151.070572 
	C303.817444,150.932938 282.356293,150.989853 260.895508,150.998871 
	C259.897797,150.999283 258.809753,150.782043 257.926910,151.108047 
	C256.977142,151.458786 255.607498,152.270325 255.536316,152.990982 
	C255.450836,153.856277 256.340973,155.279068 257.174866,155.661072 
	C258.296631,156.174942 259.768311,155.991882 261.089844,155.992493 
	C278.557922,156.000519 296.026001,155.988281 314.491394,155.981140 
z"/>
<path fill="#464245" opacity="1.000000" stroke="none" 
	d="
M229.655029,502.258606 
	C229.938843,504.192322 230.070145,506.405975 230.064774,508.619324 
	C230.009537,531.416504 230.024475,554.214355 229.837860,577.010559 
	C229.599670,606.105530 229.203140,635.199158 228.857315,664.293152 
	C228.537231,691.224060 228.228470,718.155090 227.839081,745.085022 
	C227.728760,752.715088 227.353378,760.341370 227.071991,768.429810 
	C205.434280,768.134277 183.824524,767.366394 162.213470,766.638062 
	C159.599808,766.549927 158.345474,765.894592 158.739395,762.761597 
	C161.931458,737.373474 164.194229,711.838928 168.346710,686.613525 
	C170.402313,674.126099 175.703262,662.149353 179.773651,650.021362 
	C196.278625,600.843567 212.875870,551.696655 229.655029,502.258606 
z"/>
<path fill="#464245" opacity="1.000000" stroke="none" 
	d="
M229.733047,455.352020 
	C230.110062,459.448029 230.329224,463.914276 230.280487,468.688995 
	C229.866791,464.572388 229.720993,460.147339 229.733047,455.352020 
z"/>
<path fill="#464245" opacity="1.000000" stroke="none" 
	d="
M228.733948,419.270355 
	C229.093567,420.491058 229.300766,422.001038 229.258087,423.754669 
	C228.865982,422.518768 228.723755,421.039185 228.733948,419.270355 
z"/>
<path fill="#464245" opacity="1.000000" stroke="none" 
	d="
M223.721008,356.104980 
	C224.051392,356.490906 224.239380,357.137848 224.214966,357.892151 
	C223.861237,357.455017 223.719925,356.910492 223.721008,356.104980 
z"/>
<path fill="#464245" opacity="1.000000" stroke="none" 
	d="
M225.720184,374.104797 
	C226.051697,374.490936 226.239960,375.137939 226.215698,375.892151 
	C225.861099,375.454803 225.719009,374.910278 225.720184,374.104797 
z"/>
<path fill="#464245" opacity="1.000000" stroke="none" 
	d="
M226.722015,386.104736 
	C227.053802,386.491058 227.241425,387.137970 227.216751,387.892029 
	C226.862244,387.454529 226.720047,386.909912 226.722015,386.104736 
z"/>
<path fill="#464245" opacity="1.000000" stroke="none" 
	d="
M227.728882,398.155151 
	C228.071899,398.554993 228.260620,399.129425 228.227203,399.851440 
	C227.861588,399.442596 227.718079,398.886169 227.728882,398.155151 
z"/>
<path fill="#232023" opacity="1.000000" stroke="none" 
	d="
M292.352722,360.652344 
	C274.069427,300.419434 260.580658,245.738602 261.933624,234.780365 
	C264.947021,245.750153 267.876587,256.743805 270.990753,267.684937 
	C278.253296,293.200775 285.858368,318.621979 292.856293,344.209625 
	C301.783112,376.850159 311.148895,409.411713 318.664307,442.385895 
	C326.498352,476.758118 332.598267,511.536224 338.976318,546.225159 
	C342.175812,563.626587 345.156128,581.148926 346.719299,598.751221 
	C348.901764,623.327393 354.448700,647.509888 354.257812,672.387268 
	C354.143646,687.263062 356.010254,702.156738 357.051056,717.037903 
	C357.998993,730.591797 359.045227,744.138733 360.013153,757.691284 
	C360.107544,759.012756 360.248749,760.456116 359.823181,761.648376 
	C359.504211,762.542053 358.314392,763.676453 357.502319,763.684448 
	C356.720306,763.692139 355.661499,762.523376 355.214203,761.626953 
	C354.807892,760.812744 355.073486,759.668884 355.021057,758.671509 
	C354.002197,739.289062 353.444244,719.868225 351.832611,700.535156 
	C350.101044,679.763672 347.486420,659.062256 345.060699,638.353210 
	C342.480865,616.328308 340.021576,594.279785 336.860748,572.335083 
	C333.794708,551.048340 329.986603,529.866211 326.352997,508.664185 
	C322.971405,488.932587 319.930115,469.119537 315.739105,449.556549 
	C311.853455,431.418793 306.715729,413.545837 301.994537,395.591675 
	C298.956512,384.038513 295.674866,372.549408 292.352722,360.652344 
z"/>
<path fill="#232023" opacity="1.000000" stroke="none" 
	d="
M325.006104,262.959351 
	C327.024139,278.664978 328.999084,293.929108 331.037903,309.184662 
	C332.879120,322.961365 334.888184,336.716217 336.641327,350.503876 
	C338.228210,362.983856 339.579773,375.493866 341.016296,387.992798 
	C342.622314,401.966553 344.271942,415.935730 345.780304,429.920105 
	C346.952515,440.787781 347.868683,451.683014 349.022034,462.552887 
	C350.506317,476.541443 352.225494,490.505737 353.630157,504.501892 
	C354.606262,514.227478 355.110504,523.999756 356.028870,533.731995 
	C357.163910,545.759766 358.600769,557.759094 359.735229,569.786926 
	C360.622253,579.191040 361.416077,588.610229 361.949310,598.039856 
	C362.783264,612.787659 363.378540,627.549194 364.042480,642.306335 
	C364.408051,650.432678 364.737335,658.561035 364.999054,666.691223 
	C365.031952,667.713257 364.551575,668.751770 363.957642,671.276123 
	C362.868195,669.133118 362.118988,668.307922 362.053802,667.431946 
	C361.315796,657.514160 360.798859,647.579163 359.993835,637.667358 
	C358.800873,622.979492 357.439026,608.305054 356.119751,593.627563 
	C355.096588,582.244751 354.082886,570.860657 352.967468,559.486633 
	C351.400360,543.506653 349.671143,527.542358 348.147369,511.558411 
	C346.983978,499.354706 346.174622,487.116455 344.948425,474.919678 
	C343.508331,460.595245 341.761169,446.301910 340.196716,431.989716 
	C338.757233,418.821014 337.556274,405.623901 335.942322,392.477112 
	C333.199951,370.139099 330.132416,347.841095 327.369293,325.505493 
	C326.048309,314.826996 325.219604,304.088379 323.971954,293.399872 
	C322.647980,282.057129 321.047699,270.746979 319.652161,259.412201 
	C318.701874,251.694000 317.996918,243.945007 317.001984,236.233032 
	C315.563080,225.080002 313.820099,213.964615 312.503815,202.798157 
	C312.033875,198.811386 312.428497,194.722702 312.428497,190.680527 
	C312.998566,190.609238 313.568665,190.537949 314.138733,190.466675 
	C317.756104,214.482483 321.373444,238.498291 325.006104,262.959351 
z"/>
<path fill="#232023" opacity="1.000000" stroke="none" 
	d="
M289.871155,463.293762 
	C290.972961,472.433044 292.038269,481.140564 293.008698,489.858643 
	C293.165710,491.269257 292.901367,492.726776 291.964996,494.254333 
	C281.262909,445.914703 270.746887,397.532959 259.806305,349.247345 
	C248.897385,301.101562 238.352310,252.911087 232.449677,203.882095 
	C233.046707,203.732971 233.643738,203.583847 234.240768,203.434708 
	C234.743134,204.529327 235.482452,205.576340 235.713257,206.725494 
	C241.839813,237.226532 247.741364,267.773926 254.059540,298.234924 
	C258.059814,317.520844 262.828003,336.646301 266.968262,355.904694 
	C274.526611,391.062103 281.873749,426.264893 289.317841,461.446899 
	C289.420563,461.932281 289.638794,462.393188 289.871155,463.293762 
z"/>
<path fill="#221F22" opacity="1.000000" stroke="none" 
	d="
M340.023499,285.943878 
	C336.116333,261.165771 332.191162,236.837021 328.345764,212.495682 
	C327.727295,208.581070 327.464600,204.610229 327.037445,200.665375 
	C327.683441,200.564484 328.329437,200.463577 328.975433,200.362686 
	C330.638397,207.991699 332.517822,215.581116 333.923004,223.257324 
	C337.853241,244.727005 341.741974,266.206726 345.341370,287.733612 
	C347.522369,300.777435 349.154083,313.913574 350.999786,327.012909 
	C354.299011,350.428131 357.683899,373.832184 360.798187,397.272095 
	C361.887482,405.470917 362.172089,413.773376 363.022919,422.007935 
	C364.535736,436.649200 366.277344,451.266968 367.764160,465.910706 
	C368.383392,472.009460 368.638275,478.147186 368.979828,484.271606 
	C369.349091,490.893066 369.787872,497.518768 369.824951,504.144714 
	C369.833771,505.719482 368.362976,507.302521 367.572754,508.881775 
	C366.704285,507.515625 365.196899,506.207306 365.067139,504.774292 
	C363.902802,491.913391 363.023804,479.027039 361.976013,466.155090 
	C360.740601,450.977875 359.692352,435.778473 358.069855,420.641510 
	C355.954712,400.908020 353.509247,381.206177 350.918732,361.528534 
	C348.587372,343.819458 345.878113,326.160065 343.315674,308.481598 
	C342.247650,301.113586 341.128082,293.753021 340.023499,285.943878 
z"/>
<path fill="#232023" opacity="1.000000" stroke="none" 
	d="
M418.040192,566.804321 
	C416.178192,551.907898 414.431580,537.449341 412.472412,523.019714 
	C410.424255,507.934418 408.140381,492.881226 406.021973,477.805237 
	C404.986084,470.433228 404.013458,463.050140 403.177673,455.653412 
	C402.898590,453.183594 403.133545,450.655670 403.133545,447.046936 
	C410.328857,454.714050 445.858765,729.612671 440.678467,740.061890 
	C439.809235,736.496338 438.576447,732.975159 438.134186,729.357422 
	C436.286255,714.241272 434.770660,699.084656 432.951447,683.964783 
	C431.152954,669.017334 429.098938,654.100708 427.224854,639.162109 
	C425.432190,624.872803 423.772491,610.566772 421.967194,596.279114 
	C420.743500,586.594543 419.369110,576.929016 418.040192,566.804321 
z"/>
<path fill="#221F22" opacity="1.000000" stroke="none" 
	d="
M157.909698,474.901550 
	C149.197433,500.406647 141.079102,525.712158 131.872330,550.615234 
	C113.223488,601.057922 93.991524,651.285034 74.958153,701.585205 
	C74.377098,703.120728 73.332031,704.480652 72.503296,705.922485 
	C71.821510,705.621826 71.139725,705.321167 70.457947,705.020569 
	C101.423248,620.619690 132.388550,536.218811 163.743378,450.756165 
	C164.865219,460.185974 160.095444,467.029205 157.909698,474.901550 
z"/>
<path fill="#242124" opacity="1.000000" stroke="none" 
	d="
M313.992737,155.981125 
	C296.026001,155.988281 278.557922,156.000519 261.089844,155.992493 
	C259.768311,155.991882 258.296631,156.174942 257.174866,155.661072 
	C256.340973,155.279068 255.450836,153.856277 255.536316,152.990982 
	C255.607498,152.270325 256.977142,151.458786 257.926910,151.108047 
	C258.809753,150.782043 259.897797,150.999283 260.895508,150.998871 
	C282.356293,150.989853 303.817444,150.932938 325.277283,151.070572 
	C327.060394,151.082016 328.834991,152.412140 330.613556,153.129578 
	C328.733124,154.079987 326.927032,155.596802 324.955841,155.855408 
	C321.521332,156.305984 317.985016,155.981018 313.992737,155.981125 
z"/>
</svg>