<?xml version="1.0" standalone="no"?>
<!DOCTYPE svg PUBLIC "-//W3C//DTD SVG 20010904//EN"
 "http://www.w3.org/TR/2001/REC-SVG-20010904/DTD/svg10.dtd">
<svg version="1.0" xmlns="http://www.w3.org/2000/svg"
 width="180.000000pt" height="269.000000pt" viewBox="0 0 180.000000 269.000000"
 preserveAspectRatio="xMidYMid meet">
<metadata>
Created by potrace 1.16, written by Peter Selinger 2001-2019
</metadata>
<g transform="translate(0.000000,269.000000) scale(0.100000,-0.100000)"
fill="#000000" stroke="none">
<path d="M575 2340 c-69 -10 -113 -34 -122 -67 -9 -39 11 -143 41 -209 14 -31
26 -71 26 -89 0 -70 23 -145 77 -254 53 -106 57 -120 58 -185 0 -62 -4 -79
-33 -131 -18 -33 -73 -112 -123 -175 -108 -137 -177 -244 -236 -362 -81 -162
-169 -422 -159 -464 10 -38 76 -76 128 -73 37 2 48 -2 74 -28 48 -49 148 -65
190 -32 8 6 23 -1 43 -20 17 -16 48 -35 67 -41 50 -17 135 -8 170 17 l28 21
27 -21 c27 -19 29 -19 54 -3 25 16 28 16 69 -3 76 -37 173 -24 225 31 23 24
27 25 57 12 59 -25 125 -10 176 38 28 26 40 31 76 29 48 -3 101 24 121 63 11
20 9 37 -14 117 -81 277 -195 495 -389 739 -42 52 -90 122 -108 155 -29 52
-33 69 -33 132 1 67 5 79 59 190 50 100 61 132 71 208 7 50 24 117 38 150 30
71 42 141 32 185 -8 38 -59 64 -143 73 -50 6 -52 5 -48 -16 39 -182 40 -174
-43 -179 -56 -3 -78 -10 -120 -35 l-51 -32 -51 32 c-42 25 -64 32 -120 35 -79
5 -77 -1 -55 120 12 68 11 84 -3 81 -3 -1 -29 -5 -56 -9z"/>
</g>
</svg>
