<svg version="1.1" id="Layer_1" xmlns="http://www.w3.org/2000/svg" xmlns:xlink="http://www.w3.org/1999/xlink" x="0px" y="0px"
	 width="100%" viewBox="0 0 218 251" enable-background="new 0 0 218 251" xml:space="preserve">
<path fill="#FEFEFE" opacity="1.000000" stroke="none" 
	d="
M114.000000,252.000000 
	C76.000000,252.000000 38.500004,252.000000 1.000005,252.000000 
	C1.000003,168.333344 1.000003,84.666679 1.000002,1.000016 
	C73.666656,1.000011 146.333313,1.000011 218.999969,1.000005 
	C218.999985,84.666649 218.999985,168.333298 219.000000,251.999969 
	C184.166672,252.000000 149.333328,252.000000 114.000000,252.000000 
M79.971786,189.532928 
	C90.536591,203.008560 102.351997,215.252640 115.822624,225.981888 
	C115.776367,224.755554 115.434349,223.739609 114.942787,222.802078 
	C105.917145,205.588211 96.224709,188.687881 87.984146,171.106827 
	C75.240761,143.919113 65.307632,115.644737 61.694477,85.651566 
	C60.501099,75.745186 61.506413,65.573944 61.506413,54.966545 
	C63.890160,56.668167 65.718636,58.417915 67.890579,59.432056 
	C72.528305,61.597538 73.398933,65.163589 73.450447,69.916481 
	C73.523994,76.702515 74.281677,83.509567 75.192390,90.247467 
	C75.742142,94.314804 78.168869,96.007591 82.662682,94.853523 
	C92.460884,92.337196 101.528107,88.407509 109.586433,82.277771 
	C113.972580,78.941353 123.235054,78.605003 127.627625,81.974861 
	C136.096939,88.472298 145.536179,92.731308 155.977905,94.889320 
	C159.326828,95.581436 161.577820,94.886467 161.995193,91.128151 
	C162.869476,83.255867 163.673584,75.375519 164.599442,67.509415 
	C164.836624,65.494263 164.762894,62.848282 165.975998,61.660660 
	C168.883301,58.814434 172.470337,56.662548 176.750931,53.519798 
	C180.040665,85.120872 171.692703,113.722000 161.759705,141.942108 
	C151.857254,170.075424 138.860443,196.819077 123.536400,222.669846 
	C125.798126,222.107468 127.901764,221.394608 129.390717,220.017227 
	C162.453964,189.431931 186.008286,152.661606 199.788910,109.831139 
	C204.156403,96.256844 208.168030,82.296806 205.878571,67.711021 
	C205.380051,64.535103 203.604446,61.053207 201.352844,58.754715 
	C194.836624,52.102798 187.861450,45.887924 180.878860,39.713619 
	C178.963165,38.019672 176.388397,37.071045 173.731094,35.561737 
	C172.520889,44.100174 167.257660,48.248199 161.619583,53.213322 
	C160.255051,47.927513 156.985046,48.058472 153.673782,49.594013 
	C144.965851,53.632160 136.176895,57.562462 127.795143,62.211670 
	C122.885582,64.934921 114.633240,65.095673 109.599731,62.258713 
	C101.682800,57.796612 93.432571,53.908516 85.217888,49.999233 
	C80.981400,47.983139 77.010651,47.747486 75.696320,54.676792 
	C71.196953,48.415443 62.705658,45.819057 65.386612,34.733932 
	C61.746262,36.765697 58.975494,37.729576 56.965248,39.538586 
	C49.667015,46.106216 42.481010,52.816048 35.580219,59.796066 
	C33.761341,61.635834 32.098980,64.650307 32.122791,67.108330 
	C32.207932,75.897163 31.944834,84.918907 33.795597,93.421066 
	C41.496258,128.796906 58.088459,160.080460 79.971786,189.532928 
M118.660637,106.937683 
	C121.912880,107.017593 123.343002,105.121101 122.779305,102.243889 
	C122.494232,100.788826 120.727951,98.427498 119.874619,98.528618 
	C118.082588,98.740982 115.757545,99.913910 114.905235,101.407875 
	C113.356873,104.121941 115.038376,106.048470 118.660637,106.937683 
M114.383224,146.464203 
	C115.114227,149.826874 117.512787,151.009216 120.301231,149.718979 
	C121.614334,149.111404 122.617722,146.620605 122.674271,144.946442 
	C122.710754,143.865997 120.241203,141.591843 119.813347,141.794281 
	C117.825089,142.734955 116.157433,144.353287 114.383224,146.464203 
M116.183205,185.778214 
	C113.747658,189.552734 114.269379,192.580902 117.655136,192.920624 
	C119.174377,193.073059 121.348251,192.237320 122.271538,191.085587 
	C123.045242,190.120453 123.045105,187.158127 122.305618,186.647720 
	C120.834244,185.632172 118.618645,185.694870 116.183205,185.778214 
z"/>
<path fill="#060606" opacity="1.000000" stroke="none" 
	d="
M79.780914,189.231018 
	C58.088459,160.080460 41.496258,128.796906 33.795597,93.421066 
	C31.944834,84.918907 32.207932,75.897163 32.122791,67.108330 
	C32.098980,64.650307 33.761341,61.635834 35.580219,59.796066 
	C42.481010,52.816048 49.667015,46.106216 56.965248,39.538586 
	C58.975494,37.729576 61.746262,36.765697 65.386612,34.733932 
	C62.705658,45.819057 71.196953,48.415443 75.696320,54.676792 
	C77.010651,47.747486 80.981400,47.983139 85.217888,49.999233 
	C93.432571,53.908516 101.682800,57.796612 109.599731,62.258713 
	C114.633240,65.095673 122.885582,64.934921 127.795143,62.211670 
	C136.176895,57.562462 144.965851,53.632160 153.673782,49.594013 
	C156.985046,48.058472 160.255051,47.927513 161.619583,53.213322 
	C167.257660,48.248199 172.520889,44.100174 173.731094,35.561737 
	C176.388397,37.071045 178.963165,38.019672 180.878860,39.713619 
	C187.861450,45.887924 194.836624,52.102798 201.352844,58.754715 
	C203.604446,61.053207 205.380051,64.535103 205.878571,67.711021 
	C208.168030,82.296806 204.156403,96.256844 199.788910,109.831139 
	C186.008286,152.661606 162.453964,189.431931 129.390717,220.017227 
	C127.901764,221.394608 125.798126,222.107468 123.536400,222.669846 
	C138.860443,196.819077 151.857254,170.075424 161.759705,141.942108 
	C171.692703,113.722000 180.040665,85.120872 176.750931,53.519798 
	C172.470337,56.662548 168.883301,58.814434 165.975998,61.660660 
	C164.762894,62.848282 164.836624,65.494263 164.599442,67.509415 
	C163.673584,75.375519 162.869476,83.255867 161.995193,91.128151 
	C161.577820,94.886467 159.326828,95.581436 155.977905,94.889320 
	C145.536179,92.731308 136.096939,88.472298 127.627625,81.974861 
	C123.235054,78.605003 113.972580,78.941353 109.586433,82.277771 
	C101.528107,88.407509 92.460884,92.337196 82.662682,94.853523 
	C78.168869,96.007591 75.742142,94.314804 75.192390,90.247467 
	C74.281677,83.509567 73.523994,76.702515 73.450447,69.916481 
	C73.398933,65.163589 72.528305,61.597538 67.890579,59.432056 
	C65.718636,58.417915 63.890160,56.668167 61.506413,54.966545 
	C61.506413,65.573944 60.501099,75.745186 61.694477,85.651566 
	C65.307632,115.644737 75.240761,143.919113 87.984146,171.106827 
	C96.224709,188.687881 105.917145,205.588211 114.942787,222.802078 
	C115.434349,223.739609 115.776367,224.755554 115.822624,225.981888 
	C102.351997,215.252640 90.536591,203.008560 79.780914,189.231018 
z"/>
<path fill="#232323" opacity="1.000000" stroke="none" 
	d="
M118.278320,106.906731 
	C115.038376,106.048470 113.356873,104.121941 114.905235,101.407875 
	C115.757545,99.913910 118.082588,98.740982 119.874619,98.528618 
	C120.727951,98.427498 122.494232,100.788826 122.779305,102.243889 
	C123.343002,105.121101 121.912880,107.017593 118.278320,106.906731 
z"/>
<path fill="#1C1C1C" opacity="1.000000" stroke="none" 
	d="
M114.379128,146.096649 
	C116.157433,144.353287 117.825089,142.734955 119.813347,141.794281 
	C120.241203,141.591843 122.710754,143.865997 122.674271,144.946442 
	C122.617722,146.620605 121.614334,149.111404 120.301231,149.718979 
	C117.512787,151.009216 115.114227,149.826874 114.379128,146.096649 
z"/>
<path fill="#161616" opacity="1.000000" stroke="none" 
	d="
M116.446861,185.545135 
	C118.618645,185.694870 120.834244,185.632172 122.305618,186.647720 
	C123.045105,187.158127 123.045242,190.120453 122.271538,191.085587 
	C121.348251,192.237320 119.174377,193.073059 117.655136,192.920624 
	C114.269379,192.580902 113.747658,189.552734 116.446861,185.545135 
z"/>
</svg>